<svg width="262" height="80" viewBox="0 0 262 80" fill="none" xmlns="http://www.w3.org/2000/svg">
<path d="M248.215 52.098C250.55 51.2594 252.794 50.84 254.947 50.84C257.055 50.84 258.698 51.384 259.877 52.472C261.056 53.5374 261.645 54.954 261.645 56.722C261.645 57.538 261.566 58.2634 261.407 58.898C261.248 59.5327 260.976 60.1107 260.591 60.632C260.228 61.1534 259.911 61.5614 259.639 61.856C259.39 62.1507 258.982 62.536 258.415 63.012C257.939 63.4654 257.588 63.8167 257.361 64.066C257.134 64.2927 256.862 64.644 256.545 65.12C256.228 65.5734 255.99 66.072 255.831 66.616C255.695 67.1374 255.616 67.738 255.593 68.418H252.125C252.125 67.67 252.204 66.9674 252.363 66.31C252.522 65.63 252.692 65.0747 252.873 64.644C253.077 64.1907 253.36 63.726 253.723 63.25C254.086 62.7514 254.38 62.3887 254.607 62.162C254.834 61.9127 255.162 61.584 255.593 61.176C256.092 60.6774 256.466 60.292 256.715 60.02C256.964 59.748 257.202 59.3627 257.429 58.864C257.678 58.3654 257.803 57.844 257.803 57.3C257.803 55.5547 256.704 54.682 254.505 54.682C252.873 54.682 250.992 55.1014 248.861 55.94L248.215 52.098ZM251.955 76V71.24H255.763V76H251.955Z" fill="#004098"/>
<path d="M227.339 52.132L229.787 59.986C230.376 62.162 230.206 64.2813 229.277 66.344L227.985 68.452L225.129 66.786L226.421 64.644C226.897 63.42 226.954 62.2073 226.591 61.006L224.143 53.118L227.339 52.132ZM211.495 73.008C212.084 71.376 212.413 69.676 212.481 67.908V58.864H210.577V55.532H212.481V49.888H215.813V55.532H218.091C220.924 55.804 222.477 57.3567 222.749 60.19V73.382C222.59 76.102 221.207 77.6547 218.601 78.04H216.085V74.708H218.601C219.145 74.4813 219.428 74.0393 219.451 73.382V60.19C219.383 59.374 218.93 58.932 218.091 58.864H215.813V67.908C215.745 70.1067 215.337 72.226 214.589 74.266L213.059 78.04L209.965 76.748L211.495 73.008Z" fill="#004098"/>
<path d="M185.111 61.55V55.77H176.645V52.472H185.111V49.922H188.443V52.472H194.087V55.77H188.443V61.89C190.301 62.706 191.287 64.1453 191.401 66.208V70.73C191.265 73.0873 190.381 75.116 188.749 76.816L186.607 78.72L184.397 76.272L186.505 74.368C187.434 73.3253 187.955 72.1127 188.069 70.73V68.35C187.23 70.118 185.836 71.0587 183.887 71.172C181.099 70.8773 179.591 69.336 179.365 66.548V66.208C179.637 63.3747 181.189 61.822 184.023 61.55H185.111ZM185.111 66.548V64.882H184.023C183.207 64.95 182.765 65.392 182.697 66.208V66.548C182.742 67.3187 183.139 67.7607 183.887 67.874C184.635 67.7607 185.043 67.3187 185.111 66.548Z" fill="#004098"/>
<path d="M157.094 67.704C158.137 68.248 158.692 69.132 158.76 70.356V72.09H155.462V70.594C155.032 70.3673 154.59 70.2653 154.136 70.288H153.592V73.28C153.32 76.1133 151.768 77.666 148.934 77.938H148.56C145.704 77.666 144.152 76.1133 143.902 73.28V71.614C144.152 68.7807 145.704 67.228 148.56 66.956H150.26V61.788H143.902V58.456H150.26V55.702H143.902V52.404H150.26V49.956H153.592V52.404H157.808V55.702H153.592V58.456H157.808V61.788H153.592V66.956H154.136C155.179 66.956 156.165 67.2053 157.094 67.704ZM150.26 73.28V70.288H148.56C147.722 70.356 147.28 70.798 147.234 71.614V73.28C147.28 74.096 147.722 74.538 148.56 74.606H148.934C149.75 74.538 150.192 74.096 150.26 73.28Z" fill="#004098"/>
<path d="M115.311 61.754V65.086H112.999C111.775 65.0407 110.8 64.5307 110.075 63.556C109.395 62.604 109.055 61.5613 109.055 60.428V49.956H112.387V60.428C112.364 60.9947 112.568 61.4367 112.999 61.754H115.311ZM119.799 64.406V49.956H123.131V64.406C123.04 66.65 122.496 68.792 121.499 70.832L117.351 78.448L114.427 76.85L118.575 69.234C119.3 67.6927 119.708 66.0833 119.799 64.406Z" fill="#004098"/>
<path d="M76.8549 62.264L74.3729 69.914L71.2109 68.86L73.6929 61.21C74.1916 59.4647 74.4863 57.6967 74.5769 55.906V55.77H72.4689V52.472H74.5769V49.854H77.9089V52.472H81.6489V55.77H77.9089V55.906C77.8183 58.082 77.4669 60.2013 76.8549 62.264ZM85.2869 57.912V54.58H90.6929V57.912H85.2869ZM89.4349 68.894C90.3869 69.6647 90.8856 70.6733 90.9309 71.92V74.368H87.6329V71.92C87.4743 71.444 87.1229 71.1833 86.5789 71.138V73.314C86.3069 76.1473 84.7656 77.7 81.9549 77.972H81.7849C78.9289 77.7 77.3763 76.1473 77.1269 73.314V72.464C77.3763 69.6307 78.9289 68.078 81.7849 67.806H83.2809V61.822H86.5789V67.806C87.6443 67.874 88.5963 68.2367 89.4349 68.894ZM83.2809 73.314V71.104H81.7849C80.9463 71.172 80.5043 71.6253 80.4589 72.464V73.314C80.5043 74.13 80.9463 74.572 81.7849 74.64H81.9549C82.7709 74.572 83.2129 74.13 83.2809 73.314Z" fill="#004098"/>
<path d="M36.9414 49.922H40.2734V68.214C40.2961 70.0273 40.5567 71.818 41.0554 73.586L42.0754 76.884L38.9134 77.904L37.8594 74.538C37.2927 72.4527 36.9867 70.3447 36.9414 68.214V49.922ZM55.1654 54.036C55.7321 55.192 55.7094 56.348 55.0974 57.504L53.6014 60.326L50.6774 58.796L52.1394 55.94C52.1847 55.872 52.2187 55.804 52.2414 55.736C52.1507 55.736 52.0827 55.736 52.0374 55.736H46.3594V52.438H52.0374C53.3521 52.4153 54.3947 52.948 55.1654 54.036ZM44.0814 73.756V71.138H47.4134V73.756C47.6174 74.3907 48.0594 74.6967 48.7394 74.674H55.3354V78.006H48.7394C45.9967 77.8473 44.4441 76.4307 44.0814 73.756Z" fill="#004098"/>
<path d="M0.730469 58.796C2.77047 55.3734 4.26647 51.5427 5.21847 47.304L8.48247 48.154C8.4598 48.358 8.41447 48.562 8.34647 48.766C8.30114 48.9474 8.24447 49.1627 8.17647 49.412C8.13114 49.6614 8.10847 49.854 8.10847 49.99H21.9125V53.628H6.95247C6.81647 54.0814 6.61247 54.7047 6.34047 55.498H20.4845V58.728H5.69447V56.178C5.1958 57.9007 4.60647 59.3853 3.92647 60.632H18.9205V61.958C18.9205 64.406 19.0111 66.582 19.1925 68.486C19.3965 70.3674 19.6005 71.716 19.8045 72.532C20.0311 73.3254 20.1898 73.722 20.2805 73.722L20.3825 73.314C20.4278 73.042 20.4958 72.3507 20.5865 71.24C20.6771 70.1294 20.7678 68.4633 20.8585 66.242L23.8505 66.956C23.7145 70.288 23.4991 72.838 23.2045 74.606C22.9325 76.374 22.5811 77.5414 22.1505 78.108C21.7198 78.6747 21.1191 78.958 20.3485 78.958C18.9658 78.958 17.8211 77.7454 16.9145 75.32C16.0078 72.8947 15.4978 69.1774 15.3845 64.168H3.04247V60.972L0.730469 58.796ZM3.11047 67.942L4.91247 64.916C6.70314 66.344 8.23313 67.7607 9.50247 69.166C10.5451 67.8514 11.6218 66.344 12.7325 64.644L15.0445 67.228C14.1605 68.6333 13.1518 70.1067 12.0185 71.648C13.0611 72.9174 14.3305 74.436 15.8265 76.204L13.7865 79.026L9.60447 74.096C7.49647 76.3627 5.1958 78.1307 2.70247 79.4L1.27447 76C3.31447 74.912 5.24114 73.4387 7.05447 71.58C5.89847 70.3787 4.5838 69.166 3.11047 67.942Z" fill="#004098"/>
<path d="M243.761 16.644C244.237 15.42 244.293 14.2073 243.931 13.006L241.483 5.11797L244.679 4.13197L247.127 11.986C247.716 14.162 247.546 16.2813 246.617 18.344L245.325 20.452L242.469 18.786L243.761 16.644ZM228.835 25.008C229.424 23.376 229.753 21.676 229.821 19.908V10.864H227.917V7.53197H229.821V1.88797H233.153V7.53197H235.431C238.264 7.80397 239.817 9.35664 240.089 12.19V25.382C239.93 28.102 238.547 29.6546 235.941 30.04H233.425V26.708H235.941C236.485 26.4813 236.768 26.0393 236.791 25.382V12.19C236.723 11.374 236.269 10.932 235.431 10.864H233.153V19.908C233.085 22.1066 232.677 24.226 231.929 26.266L230.399 30.04L227.305 28.748L228.835 25.008ZM241.143 3.75797V0.969971H243.931V3.75797H241.143ZM245.325 3.75797V0.969971H248.147V3.75797H245.325Z" fill="#004098"/>
<path d="M201.67 22.662V25.382H198.474V8.72198H207.518V22.662H201.67ZM201.67 19.33H204.424V12.088H201.67V19.33ZM197.08 9.50399V31.162H193.68V16.236C193.363 17.4147 192.864 18.5027 192.184 19.5L190.824 14.944C193.159 10.932 194.723 6.02465 195.516 0.221985L198.814 0.867985C198.384 4.04132 197.806 6.91998 197.08 9.50399ZM208.878 25.552V5.45798H198.78V1.58199H213.978V5.45798H212.312V25.45C212.312 26.8553 212.278 27.8753 212.21 28.51C212.165 29.1446 211.984 29.6773 211.666 30.108C211.372 30.5387 210.998 30.788 210.544 30.856C210.091 30.9467 209.411 30.992 208.504 30.992C208.006 30.992 206.612 30.9353 204.322 30.822L204.152 26.98C206.374 27.0933 207.643 27.15 207.96 27.15C208.414 27.15 208.674 27.0707 208.742 26.912C208.833 26.7533 208.878 26.3 208.878 25.552Z" fill="#004098"/>
<path d="M170.22 14.332C169.336 15.6694 168.848 17.1314 168.758 18.718V21.608C168.871 23.104 169.381 24.4754 170.288 25.722L172.702 28.374L170.254 30.584L167.806 27.898C167.058 26.9914 166.491 26.0054 166.106 24.94C165.652 23.8294 165.426 22.7187 165.426 21.608V18.718C165.448 17.562 165.652 16.44 166.038 15.352C166.4 14.264 166.899 13.2554 167.534 12.326L171.784 6.71602H160.598V3.38402H172.124C173.484 3.33869 174.515 3.88269 175.218 5.01602C175.694 6.24002 175.501 7.38469 174.64 8.45002L170.22 14.332ZM173.518 15.658V12.87H176.306V15.658H173.518ZM177.632 15.658V12.87H180.42V15.658H177.632Z" fill="#004098"/>
<path d="M132.651 13.754V17.086H130.339C129.115 17.0407 128.14 16.5307 127.415 15.556C126.735 14.604 126.395 13.5613 126.395 12.428V1.95599H129.727V12.428C129.704 12.9947 129.908 13.4367 130.339 13.754H132.651ZM137.139 16.406V1.95599H140.471V16.406C140.38 18.65 139.836 20.792 138.839 22.832L134.691 30.448L131.767 28.85L135.915 21.234C136.64 19.6927 137.048 18.0833 137.139 16.406Z" fill="#004098"/>
<path d="M96.406 24.532H101.404V20.724H96.406V24.532ZM97.29 4.60798H92.19V15.42C92.19 19.4546 91.986 22.6393 91.578 24.974C91.1927 27.3086 90.4787 29.4506 89.436 31.4L86.75 28.374C87.5433 26.6966 88.076 24.8266 88.348 22.764C88.6427 20.6786 88.79 17.5846 88.79 13.482V0.901978H109.088V25.62C109.088 27.0253 109.054 28.0453 108.986 28.68C108.941 29.3146 108.759 29.8473 108.442 30.278C108.147 30.7086 107.762 30.958 107.286 31.026C106.833 31.1166 106.153 31.162 105.246 31.162C104.838 31.162 103.761 31.1053 102.016 30.992L101.914 27.626H96.406V29.224H93.244V17.528H104.6V27.354C104.532 27.354 104.532 27.3653 104.6 27.388C104.691 27.388 104.747 27.388 104.77 27.388C105.246 27.388 105.518 27.3086 105.586 27.15C105.654 26.9913 105.688 26.538 105.688 25.79V4.60798H100.622V6.68198H104.838V9.94598H100.622V12.53H105.212V15.896H92.666V12.53H97.29V9.94598H93.108V6.68198H97.29V4.60798Z" fill="#004098"/>
<path d="M68.3897 8.00802C66.8711 6.51202 65.4544 4.97069 64.1397 3.38402C62.8251 4.94802 61.4084 6.48936 59.8897 8.00802H68.3897ZM56.1497 20.418L58.9717 18.378C59.9011 20.3727 60.7511 22.458 61.5217 24.634L58.6317 26.402C57.8837 24.3167 57.0564 22.322 56.1497 20.418ZM71.9937 20.112C71.2684 22.2654 70.3957 24.3507 69.3757 26.368L66.7237 24.328C67.6984 22.1747 68.4917 20.18 69.1037 18.344L71.9937 20.112ZM65.9417 26.742H74.6457V30.448H53.6337V26.742H62.3377V18.072H54.6197V14.502H62.3377V11.578H57.7817V9.23202C56.6031 10.2974 55.2544 11.2607 53.7357 12.122L52.5117 8.62002C56.0477 6.33069 59.2324 3.61069 62.0657 0.460022H66.2137C69.0471 3.61069 72.2317 6.33069 75.7677 8.62002L74.5437 12.122C73.025 11.2607 71.6764 10.2974 70.4977 9.23202V11.578H65.9417V14.502H73.6597V18.072H65.9417V26.742Z" fill="#004098"/>
<path d="M25.2101 30.04C23.9634 29.9947 22.9661 29.496 22.2181 28.544C21.5154 27.6147 21.1641 26.5607 21.1641 25.382V18.514C21.4361 15.6807 22.9887 14.128 25.8221 13.856H25.9241V7.702H21.8101V4.404H25.9241V1.888H29.2221V4.404H33.5741V7.702H29.2221V13.856H32.3841C35.1947 14.128 36.7474 15.6807 37.0421 18.514V25.382C37.0194 27.966 35.7954 29.5187 33.3701 30.04H31.4321V26.708H33.2681C33.5627 26.3 33.7101 25.858 33.7101 25.382V18.514C33.6194 17.698 33.1774 17.256 32.3841 17.188H29.2221V25.382C29.2221 26.538 28.8707 27.592 28.1681 28.544C27.3974 29.496 26.4114 29.9947 25.2101 30.04ZM24.4961 18.514V25.382C24.4734 25.9713 24.7114 26.4133 25.2101 26.708C25.6861 26.436 25.9241 25.994 25.9241 25.382V17.188H25.8221C25.0061 17.256 24.5641 17.698 24.4961 18.514ZM39.6261 13.176L36.3621 13.856L34.9681 7.09L38.2321 6.41L39.6261 13.176Z" fill="#004098"/>
</svg>
