<svg width="616" height="119" viewBox="0 0 616 119" fill="none" xmlns="http://www.w3.org/2000/svg">
<mask id="path-1-inside-1_447_82318" fill="white">
<path d="M556.097 0C588.958 0 615.597 26.6391 615.597 59.5C615.597 92.3609 588.958 119 556.097 119H74.0967C44.992 119 20.769 98.1028 15.6113 70.4941C2.94314 58.8979 -4.03239 34.4341 2.48339 20.0439C8.26122 28.7777 14.2459 33.2561 19.543 35.709C28.7224 14.6898 49.6943 0 74.0967 0H556.097Z"/>
</mask>
<path d="M556.097 0C588.958 0 615.597 26.6391 615.597 59.5C615.597 92.3609 588.958 119 556.097 119H74.0967C44.992 119 20.769 98.1028 15.6113 70.4941C2.94314 58.8979 -4.03239 34.4341 2.48339 20.0439C8.26122 28.7777 14.2459 33.2561 19.543 35.709C28.7224 14.6898 49.6943 0 74.0967 0H556.097Z" fill="white"/>
<path d="M556.097 119V125V119ZM15.6113 70.4941L21.5093 69.3923L21.1412 67.4219L19.6626 66.0684L15.6113 70.4941ZM2.48339 20.0439L7.48747 16.7335L1.49645 7.67748L-2.98241 17.5691L2.48339 20.0439ZM19.543 35.709L17.0218 41.1536L22.587 43.7306L25.0415 38.1103L19.543 35.709ZM556.097 0V6C585.644 6 609.597 29.9528 609.597 59.5H615.597H621.597C621.597 23.3253 592.271 -6 556.097 -6V0ZM615.597 59.5H609.597C609.597 89.0472 585.644 113 556.097 113V119V125C592.271 125 621.597 95.6747 621.597 59.5H615.597ZM556.097 119V113H74.0967V119V125H556.097V119ZM74.0967 119V113C47.9336 113 26.1462 94.2135 21.5093 69.3923L15.6113 70.4941L9.71336 71.596C15.3917 101.992 42.0504 125 74.0967 125V119ZM15.6113 70.4941L19.6626 66.0684C14.3653 61.2193 9.94171 53.3077 7.64834 44.7617C5.33352 36.1357 5.47719 27.9783 7.94919 22.5188L2.48339 20.0439L-2.98241 17.5691C-7.02619 26.4998 -6.65265 37.7694 -3.9416 47.8719C-1.2091 58.0543 4.18917 68.1727 11.5601 74.9199L15.6113 70.4941ZM2.48339 20.0439L-2.52069 23.3544C3.83214 32.9573 10.6533 38.2046 17.0218 41.1536L19.543 35.709L22.0641 30.2644C17.8385 28.3076 12.6903 24.598 7.48747 16.7335L2.48339 20.0439ZM19.543 35.709L25.0415 38.1103C33.3007 19.1982 52.1643 6 74.0967 6V0V-6C47.2243 -6 24.1441 10.1813 14.0444 33.3077L19.543 35.709ZM74.0967 0V6H556.097V0V-6H74.0967V0Z" fill="#004098" mask="url(#path-1-inside-1_447_82318)"/>
</svg>
