<svg width="364" height="81" viewBox="0 0 364 81" fill="none" xmlns="http://www.w3.org/2000/svg">
<rect width="363.998" height="80.4636" fill="white"/>
<path d="M189.023 0H269.487V80.4631H189.023V0Z" fill="#004098"/>
<path d="M269.487 0V80.4631H189.023V0H269.487ZM192.118 77.3684H266.392V3.09473H192.118V77.3684Z" fill="#004098"/>
<path d="M237.075 33.8463V19.3142H240.518V33.8463C240.349 36.8168 239.488 39.5679 237.936 42.0997L224.214 61.1888L221.429 59.1634L235.1 40.0743C236.281 38.1502 236.94 36.0742 237.075 33.8463ZM223.96 29.3904C222.678 28.1077 221.159 27.4157 219.403 27.3144H215.707V23.8207H219.403C220.787 23.8544 222.138 24.1751 223.454 24.7827C224.703 25.3566 225.783 26.1667 226.695 27.2132L228.872 29.8968L226.138 32.0741L223.96 29.3904Z" fill="white"/>
<path d="M283.535 0H363.998V80.4631H283.535V0Z" fill="#004098"/>
<path d="M363.998 0V80.4631H283.535V0H363.998ZM286.63 77.3684H360.904V3.09473H286.63V77.3684Z" fill="#004098"/>
<path d="M332.199 39.011L336.756 43.9732L334.174 46.3023L329.617 41.3402C328.098 39.9224 326.326 39.146 324.3 39.011H318.173V61.2395H314.68V19.3649H318.173V35.5679H324.3C327.338 35.7366 329.971 36.8844 332.199 39.011Z" fill="white"/>
<path d="M94.5117 0H174.975V80.4631H94.5117V0Z" fill="#004098"/>
<path d="M174.975 0V80.4631H94.5117V0H174.975ZM97.6065 77.3684H171.88V3.09473H97.6065V77.3684Z" fill="#004098"/>
<path d="M133.894 36.378L125.438 44.9858L122.957 42.5047L136.932 28.3271C138.249 26.8081 139.008 25.0527 139.211 23.0611V19.2635H142.704V23.0611C142.468 25.9979 141.371 28.5803 139.413 30.8082L136.325 33.8969L137.287 34.9602C138.873 37.0531 139.683 39.4667 139.717 42.2009V61.0875H136.274V42.2009C136.274 40.4118 135.768 38.7915 134.755 37.34L133.894 36.378Z" fill="white"/>
<path d="M0 0.000488281H80.4631V80.4636H0V0.000488281Z" fill="#004098"/>
<path d="M80.4631 0.000488281V80.4636H0V0.000488281H80.4631ZM3.09473 77.3689H77.3684V3.09522H3.09473V77.3689Z" fill="#004098"/>
<path d="M43.0035 55.1041C43.0035 56.7919 42.3959 58.1928 41.1806 59.3067C40.4718 59.8806 39.6785 60.1675 38.8008 60.1675C38.4633 60.1675 38.1595 60.1337 37.8894 60.0662L34.902 59.3573L35.7121 56.0155L38.6489 56.6737C38.784 56.7075 38.919 56.6906 39.054 56.6231C39.4253 56.218 39.5941 55.7117 39.5603 55.1041V26.6982H30.2436V23.2044H39.5603V18.9005H43.0035V23.2044H49.2821C48.5057 22.3605 48.0332 21.179 47.8644 19.66C48.1682 16.4194 49.9235 14.6641 53.1303 14.394C56.3372 14.7316 58.1094 16.4869 58.447 19.66C58.1094 22.8669 56.3372 24.6391 53.1303 24.9766C52.4552 24.9091 51.8645 24.7741 51.3581 24.5715V26.6982H43.0035V55.1041ZM34.1425 38.2935C34.0412 41.129 33.4673 43.8801 32.4209 46.5469L29.8892 52.4711L26.6992 51.0533L29.2816 45.1797C30.1592 42.9856 30.6318 40.6902 30.6993 38.2935V33.23H34.1425V38.2935ZM49.7885 37.4833C51.24 37.5171 52.4215 38.1247 53.3329 39.3061C54.1093 40.4201 54.5312 41.7028 54.5987 43.1544V51.3571H51.105V43.1544C51.105 42.0742 50.6661 41.3315 49.7885 40.9264H46.7504V37.4833H49.7885ZM53.1303 22.3436C54.7506 22.1749 55.6452 21.2803 55.814 19.66C55.6452 18.006 54.7506 17.1114 53.1303 16.9764C51.51 17.1114 50.6324 18.006 50.4974 19.66C50.6324 21.2803 51.51 22.1749 53.1303 22.3436Z" fill="white"/>
</svg>
