<svg width="383" height="106" viewBox="0 0 383 106" fill="none" xmlns="http://www.w3.org/2000/svg">
<path d="M376.131 57.0309C378.018 56.8258 379.044 55.8001 379.208 53.954C379.044 52.0258 378.018 50.9796 376.131 50.8155C374.244 50.9796 373.239 52.0258 373.116 53.954C373.198 55.8411 374.203 56.8668 376.131 57.0309ZM376.131 47.554C380.029 47.9232 382.182 50.0565 382.593 53.954C382.182 57.8104 380.029 59.9642 376.131 60.4155C375.147 60.2924 374.265 60.0668 373.485 59.7386C373.526 60.0668 373.567 60.3745 373.608 60.6617V71.0001C373.444 74.6104 372.644 78.077 371.208 81.4001L360.439 103.985L355.023 101.4L365.793 78.8155C366.818 76.2719 367.413 73.6668 367.577 71.0001V60.6617C367.413 59.554 366.818 58.9591 365.793 58.877H346.777V52.8463H365.793C367.311 52.9693 368.624 53.3386 369.731 53.954C370.1 50.0565 372.234 47.9232 376.131 47.554Z" fill="#004098"/>
<path d="M289.177 75.1847L279.516 84.9078L275.27 80.7232L292.254 63.4309C293.69 61.7078 294.531 59.7796 294.777 57.6463V53.0309H300.808V57.6463C300.521 61.4617 299.105 64.8052 296.562 67.677L293.423 70.8155L293.977 71.4924C295.044 72.7232 295.844 74.1796 296.377 75.8617C296.952 77.4617 297.239 79.1437 297.239 80.9078V103.862H291.208V80.9078C291.208 78.9796 290.695 77.2155 289.67 75.6155L289.177 75.1847Z" fill="#004098"/>
<path d="M221.056 104.354L215.702 101.646L226.471 80.1692L217.302 75.4308L220.071 70.0769L228.441 74.3846C228.646 73.441 228.748 72.4769 228.748 71.4923V60.7846C228.625 59.718 228.03 59.1231 226.964 59H222.348C220.912 59.1641 219.948 59.9436 219.456 61.3385L218.287 66.8154C217.589 69.8513 216.399 72.641 214.717 75.1846L212.81 77.5231L208.133 73.6462L210.164 71.3077C211.189 69.5026 211.948 67.6154 212.441 65.6462L213.61 60.1077C214.84 55.759 217.753 53.3795 222.348 52.9692H226.964C231.723 53.4205 234.328 56.0256 234.779 60.7846V71.4923C234.656 75.1436 233.835 78.6308 232.317 81.9539L221.056 104.354Z" fill="#004098"/>
<path d="M157.792 95.9231C158.695 92.7642 159.228 89.5436 159.392 86.2616V80.8462H152.684L152.131 95.4308C152.049 97.5231 151.351 99.4103 150.038 101.092C148.602 102.733 146.777 103.615 144.561 103.739C142.346 103.615 140.541 102.713 139.146 101.031C137.874 99.3077 137.238 97.4001 137.238 95.3077V83.2462C137.731 78.077 140.541 75.2667 145.669 74.8154H146.9L147.392 61.5847C147.392 60.9283 147.187 60.3949 146.777 59.9847C146.325 59.4924 145.813 59.2667 145.238 59.3077H138.715V53.277H145.238C147.536 53.277 149.505 54.118 151.146 55.8001C152.705 57.4411 153.464 59.4513 153.423 61.8308L152.931 74.8154H159.392V58.077H165.361V74.8154H169.484V80.8462H165.361V86.2616C165.238 90.159 164.623 93.9949 163.515 97.7693L161.731 103.431L156.008 101.523L157.792 95.9231ZM146.161 95.1847L146.715 80.8462H145.669C144.192 80.9283 143.392 81.7283 143.269 83.2462V95.3077C143.228 96.3744 143.659 97.1744 144.561 97.7077C145.628 97.2154 146.161 96.3744 146.161 95.1847Z" fill="#004098"/>
<path d="M97.3025 90.2001L94.7178 94.877C92.3794 91.5129 90.964 89.2975 90.4717 88.2308C88.7896 91.2257 86.7999 93.8103 84.5025 95.9847L82.4102 90.7539V96.4154H97.3025V90.2001ZM82.4102 77.4616V89.7693C83.723 88.0462 85.0973 85.9129 86.5332 83.3693C84.8922 81.1539 83.5178 79.1847 82.4102 77.4616ZM86.0409 67.8001L80.4409 70.0154C79.2101 63.6154 77.9589 58.159 76.6871 53.6462L82.2871 51.3693C83.805 57.0308 85.0563 62.5078 86.0409 67.8001ZM98.9025 71.3693L93.364 68.6001C93.6512 67.9026 93.9178 67.1847 94.164 66.4462L88.6871 68.4154C87.5384 61.4411 86.3896 55.8411 85.2409 51.6154L90.7794 49.7693C92.0102 54.2411 93.1589 59.759 94.2255 66.3231C95.7025 62.0154 97.1178 56.7026 98.4717 50.3847L104.318 52.4154C102.595 60.3334 100.79 66.6513 98.9025 71.3693ZM66.8409 84.7231L62.4102 83.5539C63.3948 76.3334 64.1332 69.0308 64.6255 61.6462L67.8871 62.2001V50.2001H73.9178V60.9693L76.564 59.9847C77.3435 64.0872 77.9999 68.1078 78.5332 72.0462H82.4102V76.5385L84.6871 71.9231C86.6563 73.8103 88.3178 75.7385 89.6717 77.7078C90.5332 75.3693 91.3948 72.8257 92.2563 70.077L97.1794 73.1539C96.2358 76.436 95.0871 79.5949 93.7332 82.6308C94.964 84.518 96.1537 86.6308 97.3025 88.9693V72.0462H103.333V105.646H97.1794V102.815H82.4717V105.646H76.5025V74.9385L74.5948 75.5539C74.3486 73.7078 74.123 70.8565 73.9178 67.0001V105.954H67.8871V71.0001C67.8871 75.4719 67.5384 80.0462 66.8409 84.7231Z" fill="#004098"/>
<path d="M7.57698 103.923C5.32057 103.841 3.51544 102.938 2.1616 101.215C0.889802 99.5333 0.253906 97.6257 0.253906 95.4923V83.0615C0.746214 77.9333 3.55647 75.1231 8.68467 74.6308H8.86929V63.4923H1.42314V57.5231H8.86929V52.9692H14.8385V57.5231H22.7154V63.4923H14.8385V74.6308H20.5616C25.6488 75.1231 28.459 77.9333 28.9924 83.0615V95.4923C28.9513 100.169 26.736 102.979 22.3462 103.923H18.8385V97.8923H22.1616C22.6949 97.1538 22.9616 96.3539 22.9616 95.4923V83.0615C22.7975 81.5846 21.9975 80.7846 20.5616 80.6615H14.8385V95.4923C14.8385 97.5846 14.2026 99.4923 12.9308 101.215C11.536 102.938 9.75134 103.841 7.57698 103.923ZM6.28467 83.0615V95.4923C6.24365 96.559 6.67442 97.359 7.57698 97.8923C8.43852 97.4 8.86929 96.6 8.86929 95.4923V80.6615H8.68467C7.20775 80.7846 6.40775 81.5846 6.28467 83.0615ZM33.6693 73.4L27.7616 74.6308L25.2385 62.3846L31.1462 61.1539L33.6693 73.4Z" fill="#004098"/>
<path d="M213.617 23.3719C211.897 23.3719 210.414 22.9923 209.166 22.2331C207.927 21.4662 206.97 20.3971 206.296 19.0259C205.63 17.647 205.297 16.0434 205.297 14.2151C205.297 12.3868 205.63 10.7755 206.296 9.38104C206.97 7.97885 207.908 6.88654 209.108 6.1041C210.317 5.31392 211.727 4.91882 213.338 4.91882C214.268 4.91882 215.186 5.07376 216.092 5.38364C216.999 5.69351 217.824 6.19706 218.567 6.89428C219.311 7.58376 219.904 8.49789 220.345 9.63668C220.787 10.7755 221.008 12.1777 221.008 13.8432V15.0053H207.249V12.6347H218.219C218.219 11.6276 218.017 10.729 217.614 9.93881C217.219 9.14863 216.654 8.525 215.918 8.06794C215.19 7.61087 214.33 7.38234 213.338 7.38234C212.246 7.38234 211.301 7.65348 210.503 8.19576C209.713 8.7303 209.104 9.42752 208.678 10.2874C208.252 11.1473 208.039 12.0692 208.039 13.0531V14.6334C208.039 15.9814 208.272 17.1241 208.736 18.0614C209.209 18.9911 209.864 19.6999 210.7 20.188C211.537 20.6683 212.509 20.9084 213.617 20.9084C214.338 20.9084 214.988 20.8077 215.569 20.6063C216.158 20.3971 216.665 20.0873 217.092 19.6767C217.518 19.2583 217.847 18.7393 218.079 18.1195L220.729 18.8632C220.45 19.7619 219.981 20.5521 219.323 21.2338C218.664 21.9078 217.851 22.4346 216.882 22.8142C215.914 23.186 214.826 23.3719 213.617 23.3719Z" fill="#9E9E9E"/>
<path d="M185.539 29.6934V5.15123H188.189V7.98659H188.514C188.715 7.67672 188.994 7.28163 189.351 6.80132C189.715 6.31327 190.234 5.87944 190.908 5.49984C191.589 5.1125 192.511 4.91882 193.673 4.91882C195.176 4.91882 196.501 5.29455 197.647 6.046C198.794 6.79745 199.689 7.86264 200.332 9.24159C200.975 10.6205 201.296 12.2474 201.296 14.1221C201.296 16.0124 200.975 17.6509 200.332 19.0375C199.689 20.4165 198.798 21.4856 197.659 22.2448C196.52 22.9962 195.207 23.3719 193.72 23.3719C192.573 23.3719 191.655 23.1821 190.966 22.8025C190.276 22.4152 189.746 21.9775 189.374 21.4894C189.002 20.9936 188.715 20.5831 188.514 20.2577H188.281V29.6934H185.539ZM188.235 14.0757C188.235 15.4236 188.433 16.6128 188.828 17.6431C189.223 18.6657 189.8 19.4675 190.559 20.0485C191.318 20.6218 192.248 20.9084 193.348 20.9084C194.494 20.9084 195.451 20.6063 196.218 20.002C196.993 19.39 197.574 18.5689 197.961 17.5385C198.356 16.5004 198.554 15.3461 198.554 14.0757C198.554 12.8207 198.36 11.6896 197.973 10.6825C197.593 9.66767 197.016 8.86587 196.241 8.2771C195.474 7.68059 194.51 7.38234 193.348 7.38234C192.232 7.38234 191.295 7.6651 190.536 8.23062C189.777 8.7884 189.203 9.57083 188.816 10.5779C188.429 11.5773 188.235 12.7432 188.235 14.0757Z" fill="#9E9E9E"/>
<path d="M168.438 29.6934C167.973 29.6934 167.559 29.6547 167.195 29.5772C166.831 29.5075 166.579 29.4378 166.439 29.368L167.137 26.951C167.803 27.1215 168.392 27.1834 168.903 27.1369C169.414 27.0905 169.867 26.8619 170.262 26.4513C170.665 26.0485 171.033 25.3939 171.366 24.4875L171.878 23.0931L165.277 5.15125H168.252L173.179 19.3746H173.365L178.292 5.15125H181.267L173.69 25.6031C173.35 26.5249 172.927 27.288 172.424 27.8923C171.92 28.5043 171.335 28.9575 170.669 29.2518C170.011 29.5462 169.267 29.6934 168.438 29.6934Z" fill="#9E9E9E"/>
<path d="M161.89 5.15129V7.47536H152.641V5.15129H161.89ZM155.337 0.875H158.079V17.8872C158.079 18.6619 158.191 19.2429 158.416 19.6302C158.648 20.0098 158.943 20.2655 159.299 20.3972C159.663 20.5211 160.047 20.5831 160.45 20.5831C160.752 20.5831 161 20.5676 161.193 20.5366C161.387 20.4979 161.542 20.4669 161.658 20.4437L162.216 22.9072C162.03 22.9769 161.77 23.0466 161.437 23.1163C161.104 23.1938 160.682 23.2325 160.171 23.2325C159.396 23.2325 158.637 23.066 157.893 22.7329C157.157 22.3998 156.545 21.8923 156.057 21.2106C155.577 20.5289 155.337 19.669 155.337 18.6309V0.875Z" fill="#9E9E9E"/>
</svg>
