<svg width="311" height="109" viewBox="0 0 311 109" fill="none" xmlns="http://www.w3.org/2000/svg">
<path d="M303.278 69.4307V62.1076H297.432C299.483 64.4461 301.432 66.8871 303.278 69.4307ZM295.77 85.123C293.883 82.7025 291.934 79.8922 289.924 76.6922C287.914 79.8922 285.965 82.7025 284.078 85.123H295.77ZM281.616 105.123V107.954H275.339V92.7537C274.437 93.7794 273.309 94.682 271.955 95.4614L269.555 89.123C275.791 84.4461 281.309 78.805 286.109 72.1999H293.739C298.539 78.805 304.057 84.4461 310.293 89.123L307.893 95.4614C306.58 94.682 305.452 93.7794 304.509 92.7537V107.954H298.232V105.123H281.616ZM287.647 65.3691C284.324 71.2358 279.688 76.1794 273.739 80.1999L271.155 74.5384C275.832 71.0102 279.647 66.8666 282.601 62.1076H276.57V69.4922H270.416V55.7076H286.662V50.1691H293.185V55.7076H309.432V69.4922H304.201C305.391 71.2153 306.806 73.1025 308.447 75.1537L304.755 80.1384C300.857 75.2973 296.488 70.5384 291.647 65.8614L293.739 62.1076H285.062L287.647 65.3691ZM298.232 99.0307V91.3384H281.616V99.0307H298.232Z" fill="#004098"/>
<path d="M208.753 83.0307C211.419 80.8153 213.491 78.2717 214.968 75.3999C216.445 72.4871 217.327 68.9178 217.614 64.6922H208.753V83.0307ZM223.214 69.923C227.112 74.2307 230.455 79.2563 233.245 84.9999V64.6922H223.891C223.727 66.5384 223.501 68.282 223.214 69.923ZM217.676 51.3384H224.014V57.7384H239.583V96.5691C239.583 98.2512 239.563 99.5845 239.522 100.569C239.481 101.513 239.358 102.395 239.153 103.215C238.988 104.077 238.742 104.692 238.414 105.061C238.127 105.472 237.676 105.8 237.06 106.046C236.486 106.333 235.85 106.497 235.153 106.538C234.496 106.62 233.614 106.661 232.506 106.661C232.014 106.661 229.573 106.559 225.183 106.354L224.876 99.3384C228.896 99.5435 231.07 99.6461 231.399 99.6461C232.383 99.6461 232.937 99.523 233.06 99.2768C233.183 99.0307 233.245 98.2102 233.245 96.8153V87.2768L229.737 90.7845C226.578 84.8358 223.706 80.1999 221.122 76.8768C219.029 82.2512 215.44 86.805 210.353 90.5384L208.753 86.8461V106.723H202.414V57.7384H217.676V51.3384Z" fill="#004098"/>
<path d="M138.6 106.046V108.261H132.877V89.4922H147.77V91.7691C148.959 88.4871 149.862 84.9384 150.477 81.123C150.108 81.4922 149.739 81.7178 149.37 81.7999L147.523 74.723C151.011 73.0409 153.452 70.9281 154.846 68.3845C156.2 65.8409 156.877 62.3127 156.877 57.7999V52.3845H162.97V57.7999C162.97 60.5076 163.216 62.8871 163.708 64.9384C165.144 61.6973 166.313 58.005 167.216 53.8614L172.446 55.7076C171.626 59.9743 170.375 64.0358 168.693 67.8922L163.893 65.4922C164.221 66.5178 164.631 67.4409 165.123 68.2614C166.559 70.805 169.103 72.9589 172.754 74.723L171.339 80.8153L172.693 81.3691C171.872 85.6358 170.58 89.6973 168.816 93.5537L163.831 90.9691C164.159 92.1589 164.611 93.246 165.185 94.2307C166.662 96.7743 169.267 98.9281 173 100.692L171.154 107.769C166.108 105.677 162.436 101.82 160.139 96.1999C157.841 101.861 154.252 105.718 149.37 107.769L147.77 101.554V106.046H138.6ZM138.6 100.138H142.539V95.3999H138.6V100.138ZM156.877 77.1845H162.97V83.7691C162.97 86.5178 163.236 88.8973 163.77 90.9076C165.205 87.7076 166.354 84.0563 167.216 79.9537C164.139 77.6973 161.78 74.4973 160.139 70.3537C158.252 74.9486 155.687 78.3743 152.446 80.6307L156.016 81.9845C155.277 86.2102 154.149 90.3332 152.631 94.3537L147.77 91.9537V100.569C151.134 98.9281 153.493 96.8563 154.846 94.3537C156.2 91.8102 156.877 88.2819 156.877 83.7691V77.1845ZM132.877 60.1384V53.923H147.585V60.1384H132.877ZM131.77 69.3691V62.723H148.57V65.6153C149.759 62.2101 150.703 58.5794 151.4 54.723L156.631 56.323C155.934 60.5896 154.846 64.7332 153.37 68.7537L148.57 66.4153V69.3691H131.77ZM133.246 78.1076V72.0768H147.523V74.723V78.1076H133.246ZM133.246 86.7845V80.8153H147.523V86.7845H133.246Z" fill="#004098"/>
<path d="M85.8605 89.7999V98.0461H95.4605V89.7999H85.8605ZM85.8605 75.1537V83.3384H95.4605V75.1537H85.8605ZM85.8605 68.6922H95.4605V60.5076H85.8605V68.6922ZM63.1528 62.8461H68.9374V52.1999H74.9682V62.8461H79.2143V69.7999H75.8297C78.1682 75.7486 79.522 79.6871 79.8912 81.6153V53.7999H101.676V107.338H95.4605V104.508H85.8605V107.338H79.8912V85.9845L77.6143 88.9999C76.7117 86.5794 75.8297 83.6461 74.9682 80.1999V107.954H68.9374V84.0768C68.0758 89.4922 66.5784 94.005 64.4451 97.6153L61.4297 89.9845C64.6297 83.5025 66.804 76.7743 67.9528 69.7999H63.1528V62.8461Z" fill="#004098"/>
<path d="M17.4915 74.4153L20.0761 65.6768C20.1992 65.3076 20.1992 64.9794 20.0761 64.6922C19.789 64.4461 19.4608 64.3435 19.0915 64.3845H3.52229V58.3537H19.0915C21.43 58.3127 23.3582 59.2153 24.8761 61.0614C26.189 62.9896 26.4967 65.1025 25.7992 67.3999L23.2146 76.0768L17.4915 74.4153ZM26.7223 99.8922V105.923H8.62999C3.50178 105.431 0.691526 102.62 0.199219 97.4922V87.523H6.22999V97.4922C6.35306 98.9691 7.15307 99.7691 8.62999 99.8922H26.7223ZM23.2146 56.6307V51.5845H28.3223V56.6307H23.2146ZM30.8454 56.6307V51.5845H35.8915V56.6307H30.8454Z" fill="#004098"/>
<path d="M201.137 25.3718C199.417 25.3718 197.933 24.9922 196.686 24.233C195.446 23.4661 194.49 22.397 193.816 21.0258C193.15 19.6468 192.816 18.0432 192.816 16.215C192.816 14.3867 193.15 12.7753 193.816 11.3809C194.49 9.9787 195.427 8.88639 196.628 8.10395C197.836 7.31377 199.246 6.91868 200.858 6.91868C201.787 6.91868 202.705 7.07362 203.612 7.38349C204.518 7.69337 205.343 8.19692 206.087 8.89414C206.831 9.58361 207.423 10.4977 207.865 11.6365C208.306 12.7753 208.527 14.1775 208.527 15.8431V17.0051H194.769V14.6346H205.738C205.738 13.6275 205.537 12.7289 205.134 11.9387C204.739 11.1485 204.173 10.5249 203.437 10.0678C202.709 9.61072 201.849 9.38219 200.858 9.38219C199.765 9.38219 198.82 9.65333 198.022 10.1956C197.232 10.7302 196.624 11.4274 196.198 12.2873C195.772 13.1472 195.559 14.0691 195.559 15.0529V16.6333C195.559 17.9813 195.791 19.1239 196.256 20.0613C196.729 20.9909 197.383 21.6998 198.22 22.1878C199.057 22.6681 200.029 22.9083 201.137 22.9083C201.857 22.9083 202.508 22.8076 203.089 22.6061C203.678 22.397 204.185 22.0871 204.611 21.6765C205.037 21.2582 205.366 20.7391 205.599 20.1194L208.248 20.8631C207.969 21.7617 207.501 22.5519 206.842 23.2336C206.184 23.9076 205.37 24.4344 204.402 24.814C203.434 25.1859 202.345 25.3718 201.137 25.3718Z" fill="#9E9E9E"/>
<path d="M181.974 25.3718C180.301 25.3718 178.86 24.9767 177.652 24.1865C176.443 23.3963 175.514 22.3079 174.863 20.9212C174.212 19.5345 173.887 17.9503 173.887 16.1685C173.887 14.3557 174.22 12.756 174.886 11.3693C175.56 9.97483 176.497 8.88639 177.698 8.10395C178.907 7.31377 180.317 6.91868 181.928 6.91868C183.183 6.91868 184.314 7.15109 185.321 7.6159C186.328 8.08071 187.153 8.73145 187.796 9.56812C188.439 10.4048 188.838 11.3809 188.993 12.4964H186.251C186.042 11.683 185.577 10.9626 184.856 10.3351C184.144 9.69981 183.183 9.38219 181.974 9.38219C180.905 9.38219 179.968 9.66108 179.162 10.2189C178.364 10.7689 177.741 11.5475 177.291 12.5545C176.85 13.5539 176.629 14.7276 176.629 16.0755C176.629 17.4545 176.846 18.6552 177.28 19.6778C177.721 20.7004 178.341 21.4945 179.139 22.06C179.945 22.6255 180.89 22.9083 181.974 22.9083C182.687 22.9083 183.334 22.7843 183.915 22.5364C184.496 22.2885 184.988 21.9322 185.391 21.4674C185.794 21.0025 186.08 20.4448 186.251 19.794H188.993C188.838 20.8476 188.455 21.7966 187.843 22.641C187.239 23.4777 186.437 24.1439 185.437 24.6397C184.446 25.1278 183.291 25.3718 181.974 25.3718Z" fill="#9E9E9E"/>
<path d="M166.304 24.9999V7.15108H169.046V24.9999H166.304ZM167.698 4.17628C167.164 4.17628 166.703 3.99422 166.315 3.63012C165.936 3.26601 165.746 2.82831 165.746 2.31702C165.746 1.80572 165.936 1.36802 166.315 1.00392C166.703 0.639816 167.164 0.457764 167.698 0.457764C168.233 0.457764 168.69 0.639816 169.07 1.00392C169.457 1.36802 169.651 1.80572 169.651 2.31702C169.651 2.82831 169.457 3.26601 169.07 3.63012C168.69 3.99422 168.233 4.17628 167.698 4.17628Z" fill="#9E9E9E"/>
<path d="M162.029 7.15108L155.428 24.9999H152.639L146.039 7.15108H149.014L153.941 21.3744H154.127L159.054 7.15108H162.029Z" fill="#9E9E9E"/>
<path d="M134.059 24.9999V7.15108H136.708V9.847H136.894C137.219 8.96386 137.808 8.24727 138.66 7.69724C139.512 7.14721 140.473 6.87219 141.542 6.87219C141.744 6.87219 141.995 6.87607 142.297 6.88381C142.6 6.89156 142.828 6.90318 142.983 6.91868V9.70756C142.89 9.68432 142.677 9.64946 142.344 9.60298C142.019 9.54875 141.674 9.52163 141.31 9.52163C140.442 9.52163 139.667 9.70368 138.986 10.0678C138.312 10.4241 137.777 10.9199 137.382 11.5552C136.995 12.1827 136.801 12.8993 136.801 13.705V24.9999H134.059Z" fill="#9E9E9E"/>
<path d="M121.844 25.3718C120.124 25.3718 118.64 24.9922 117.393 24.233C116.154 23.4661 115.197 22.397 114.523 21.0258C113.857 19.6468 113.523 18.0432 113.523 16.215C113.523 14.3867 113.857 12.7753 114.523 11.3809C115.197 9.9787 116.134 8.88639 117.335 8.10395C118.543 7.31377 119.953 6.91868 121.565 6.91868C122.494 6.91868 123.412 7.07362 124.319 7.38349C125.225 7.69337 126.05 8.19692 126.794 8.89414C127.538 9.58361 128.13 10.4977 128.572 11.6365C129.013 12.7753 129.234 14.1775 129.234 15.8431V17.0051H115.476V14.6346H126.445C126.445 13.6275 126.244 12.7289 125.841 11.9387C125.446 11.1485 124.88 10.5249 124.144 10.0678C123.416 9.61072 122.556 9.38219 121.565 9.38219C120.472 9.38219 119.527 9.65333 118.729 10.1956C117.939 10.7302 117.331 11.4274 116.905 12.2873C116.479 13.1472 116.266 14.0691 116.266 15.0529V16.6333C116.266 17.9813 116.498 19.1239 116.963 20.0613C117.436 20.9909 118.09 21.6998 118.927 22.1878C119.764 22.6681 120.736 22.9083 121.844 22.9083C122.564 22.9083 123.215 22.8076 123.796 22.6061C124.385 22.397 124.892 22.0871 125.318 21.6765C125.744 21.2582 126.073 20.7391 126.306 20.1194L128.955 20.8631C128.676 21.7617 128.208 22.5519 127.549 23.2336C126.891 23.9076 126.077 24.4344 125.109 24.814C124.141 25.1859 123.052 25.3718 121.844 25.3718Z" fill="#9E9E9E"/>
<path d="M109.253 11.1485L106.79 11.8457C106.635 11.4351 106.406 11.0362 106.104 10.6488C105.81 10.2537 105.407 9.92835 104.896 9.6727C104.385 9.41705 103.73 9.28923 102.932 9.28923C101.84 9.28923 100.929 9.541 100.201 10.0446C99.4807 10.5404 99.1205 11.1717 99.1205 11.9387C99.1205 12.6204 99.3684 13.1588 99.8642 13.5539C100.36 13.949 101.135 14.2782 102.188 14.5416L104.838 15.1924C106.434 15.5797 107.623 16.1723 108.405 16.9703C109.188 17.7605 109.579 18.7792 109.579 20.0264C109.579 21.049 109.284 21.9632 108.696 22.7688C108.115 23.5745 107.301 24.2098 106.255 24.6746C105.21 25.1394 103.993 25.3718 102.607 25.3718C100.786 25.3718 99.2793 24.9767 98.0863 24.1865C96.8933 23.3963 96.1379 22.242 95.8203 20.7237L98.4233 20.0729C98.6712 21.0335 99.1399 21.754 99.8293 22.2343C100.527 22.7146 101.437 22.9548 102.56 22.9548C103.838 22.9548 104.853 22.6836 105.605 22.1413C106.364 21.5913 106.743 20.9328 106.743 20.1659C106.743 19.5461 106.527 19.0271 106.093 18.6087C105.659 18.1827 104.993 17.865 104.094 17.6559L101.119 16.9587C99.4846 16.5713 98.2838 15.9709 97.5169 15.1575C96.7577 14.3363 96.3781 13.3099 96.3781 12.0781C96.3781 11.071 96.6608 10.1801 97.2264 9.40543C97.7996 8.63074 98.5782 8.02261 99.5621 7.58104C100.554 7.13946 101.677 6.91868 102.932 6.91868C104.698 6.91868 106.085 7.30602 107.092 8.08071C108.107 8.8554 108.827 9.87799 109.253 11.1485Z" fill="#9E9E9E"/>
</svg>
