<svg width="191" height="226" viewBox="0 0 191 226" fill="none" xmlns="http://www.w3.org/2000/svg">
<path d="M0 0L95.4999 6.10879e-07L191 0V226L95.5 194.335L0 226L0 0Z" fill="#FAD06C"/>
<path d="M146.406 136.23L149.5 134.02C150.248 134.677 151.042 135.403 151.88 136.196C152.742 136.989 153.592 137.805 154.43 138.644C155.269 139.46 156.051 140.253 156.776 141.024C157.502 141.795 158.114 142.497 158.612 143.132L155.246 145.784C154.793 145.149 154.215 144.435 153.512 143.642C152.832 142.849 152.084 142.021 151.268 141.16C150.475 140.276 149.648 139.426 148.786 138.61C147.948 137.771 147.154 136.978 146.406 136.23ZM146.474 121.1H150.69V129.26C150.69 130.393 150.611 131.572 150.452 132.796C150.316 133.997 150.056 135.221 149.67 136.468C149.308 137.692 148.775 138.905 148.072 140.106C147.392 141.285 146.508 142.418 145.42 143.506C144.355 144.571 143.052 145.569 141.51 146.498C141.306 146.203 141.034 145.863 140.694 145.478C140.354 145.093 139.992 144.719 139.606 144.356C139.244 143.971 138.892 143.653 138.552 143.404C140.026 142.656 141.25 141.829 142.224 140.922C143.199 140.015 143.97 139.075 144.536 138.1C145.103 137.103 145.522 136.094 145.794 135.074C146.066 134.054 146.248 133.057 146.338 132.082C146.429 131.085 146.474 130.144 146.474 129.26V121.1ZM134.574 126.778H160.38V130.756H138.654V153.128H134.574V126.778ZM158.612 126.778H162.658V148.402C162.658 149.49 162.522 150.34 162.25 150.952C161.978 151.587 161.48 152.063 160.754 152.38C160.052 152.697 159.156 152.89 158.068 152.958C156.98 153.049 155.677 153.094 154.158 153.094C154.113 152.709 154.011 152.267 153.852 151.768C153.716 151.269 153.558 150.782 153.376 150.306C153.195 149.83 153.002 149.411 152.798 149.048C153.478 149.071 154.158 149.093 154.838 149.116C155.518 149.116 156.119 149.116 156.64 149.116C157.184 149.116 157.558 149.116 157.762 149.116C158.08 149.093 158.295 149.037 158.408 148.946C158.544 148.833 158.612 148.629 158.612 148.334V126.778Z" fill="#004098"/>
<path d="M110.775 121.134H114.889V125.69H110.775V121.134ZM110.707 139.698H114.787V153.026H110.707V139.698ZM98.2625 123.412H127.503V128.614H123.593V126.744H102.037V128.614H98.2625V123.412ZM98.0245 129.26H127.741V132.456H98.0245V129.26ZM97.4125 142.01H128.387V145.376H97.4125V142.01ZM109.143 126.574L112.951 127.662C112.225 128.682 111.443 129.747 110.605 130.858C109.766 131.946 108.95 133 108.157 134.02C107.363 135.017 106.627 135.901 105.947 136.672L102.105 135.618C102.807 134.825 103.567 133.918 104.383 132.898C105.221 131.855 106.06 130.79 106.899 129.702C107.737 128.591 108.485 127.549 109.143 126.574ZM104.825 135.822L107.069 133.374C108.565 133.646 110.185 133.986 111.931 134.394C113.676 134.779 115.421 135.199 117.167 135.652C118.935 136.105 120.601 136.57 122.165 137.046C123.751 137.522 125.134 137.987 126.313 138.44L123.899 141.296C122.833 140.843 121.541 140.367 120.023 139.868C118.504 139.369 116.872 138.871 115.127 138.372C113.381 137.873 111.625 137.409 109.857 136.978C108.089 136.525 106.411 136.139 104.825 135.822ZM109.687 143.948L112.713 145.308C111.67 146.441 110.412 147.495 108.939 148.47C107.488 149.422 105.913 150.261 104.213 150.986C102.535 151.711 100.824 152.289 99.0785 152.72C98.9198 152.38 98.6932 152.006 98.3985 151.598C98.1038 151.19 97.7978 150.782 97.4805 150.374C97.1632 149.989 96.8572 149.671 96.5625 149.422C98.2625 149.127 99.9512 148.708 101.629 148.164C103.306 147.62 104.836 146.997 106.219 146.294C107.624 145.569 108.78 144.787 109.687 143.948ZM115.807 143.88C116.759 144.696 117.949 145.467 119.377 146.192C120.827 146.895 122.403 147.507 124.103 148.028C125.825 148.549 127.559 148.946 129.305 149.218C129.01 149.513 128.693 149.864 128.353 150.272C128.013 150.68 127.695 151.088 127.401 151.496C127.129 151.927 126.891 152.323 126.687 152.686C124.964 152.255 123.241 151.677 121.519 150.952C119.819 150.227 118.221 149.377 116.725 148.402C115.229 147.405 113.937 146.328 112.849 145.172L115.807 143.88ZM118.017 131.164H122.267C121.836 132.411 121.281 133.521 120.601 134.496C119.921 135.471 119.037 136.332 117.949 137.08C116.883 137.828 115.546 138.474 113.937 139.018C112.35 139.539 110.435 139.981 108.191 140.344C105.947 140.707 103.295 140.99 100.235 141.194C100.167 140.741 99.9852 140.208 99.6905 139.596C99.4185 138.984 99.1578 138.463 98.9085 138.032C101.719 137.896 104.133 137.703 106.151 137.454C108.168 137.182 109.857 136.865 111.217 136.502C112.599 136.117 113.721 135.675 114.583 135.176C115.467 134.655 116.169 134.065 116.691 133.408C117.235 132.751 117.677 132.003 118.017 131.164Z" fill="#004098"/>
<path d="M79.6336 125.248H83.5776V144.492H79.6336V125.248ZM87.6576 121.814H91.7036V148.096C91.7036 149.297 91.5563 150.215 91.2616 150.85C90.9896 151.485 90.5023 151.972 89.7996 152.312C89.0969 152.629 88.1789 152.833 87.0456 152.924C85.9123 153.037 84.5636 153.094 82.9996 153.094C82.9543 152.686 82.8523 152.221 82.6936 151.7C82.5349 151.201 82.3536 150.691 82.1496 150.17C81.9683 149.671 81.7756 149.241 81.5716 148.878C82.6823 148.901 83.7363 148.923 84.7336 148.946C85.7309 148.946 86.3996 148.946 86.7396 148.946C87.0569 148.946 87.2836 148.889 87.4196 148.776C87.5783 148.64 87.6576 148.413 87.6576 148.096V121.814ZM67.5636 137.352H75.3836V140.922H67.5636V137.352ZM73.5816 137.352H77.3556C77.3556 137.352 77.3443 137.454 77.3216 137.658C77.3216 137.839 77.3216 138.055 77.3216 138.304C77.3216 138.531 77.3216 138.712 77.3216 138.848C77.2083 141.591 77.0836 143.835 76.9476 145.58C76.8116 147.303 76.6416 148.629 76.4376 149.558C76.2563 150.465 76.0069 151.122 75.6896 151.53C75.3496 151.961 74.9756 152.267 74.5676 152.448C74.1596 152.629 73.6836 152.754 73.1396 152.822C72.6863 152.89 72.0856 152.935 71.3376 152.958C70.5896 152.981 69.8189 152.969 69.0256 152.924C69.0029 152.38 68.8896 151.768 68.6856 151.088C68.4816 150.431 68.2323 149.864 67.9376 149.388C68.6403 149.456 69.2976 149.501 69.9096 149.524C70.5443 149.547 71.0089 149.558 71.3036 149.558C71.5529 149.558 71.7569 149.535 71.9156 149.49C72.0969 149.422 72.2669 149.297 72.4256 149.116C72.6296 148.889 72.7996 148.391 72.9356 147.62C73.0716 146.827 73.1963 145.659 73.3096 144.118C73.4229 142.554 73.5136 140.503 73.5816 137.964V137.352ZM66.7136 126.302V130.96H73.1056V126.302H66.7136ZM63.0076 122.698H77.0496V134.564H63.0076V122.698ZM66.4756 133.476H70.4536C70.3629 135.267 70.2156 137.08 70.0116 138.916C69.8076 140.729 69.4676 142.497 68.9916 144.22C68.5383 145.92 67.8809 147.529 67.0196 149.048C66.1809 150.544 65.0703 151.881 63.6876 153.06C63.3929 152.561 62.9849 152.029 62.4636 151.462C61.9423 150.895 61.4323 150.442 60.9336 150.102C62.1576 149.127 63.1209 147.994 63.8236 146.702C64.5263 145.41 65.0589 144.027 65.4216 142.554C65.7843 141.081 66.0336 139.573 66.1696 138.032C66.3056 136.491 66.4076 134.972 66.4756 133.476Z" fill="#004098"/>
<path d="M39.4773 124.126H55.8653V127.832H39.4773V124.126ZM37.4713 130.722H57.3613V134.53H37.4713V130.722ZM38.1853 137.59H57.0553V141.33H38.1853V137.59ZM45.5633 121.066H49.6093V132.83H45.5633V121.066ZM49.5753 134.088H53.6213V148.504C53.6213 149.524 53.4967 150.329 53.2473 150.918C53.0207 151.507 52.5673 151.972 51.8873 152.312C51.1847 152.607 50.346 152.788 49.3713 152.856C48.3967 152.947 47.2747 152.992 46.0053 152.992C45.9147 152.403 45.756 151.723 45.5293 150.952C45.3027 150.181 45.042 149.513 44.7473 148.946C45.586 148.969 46.4133 148.991 47.2293 149.014C48.0453 149.014 48.5893 149.014 48.8613 149.014C49.1333 148.991 49.3147 148.946 49.4053 148.878C49.5187 148.81 49.5753 148.663 49.5753 148.436V134.088ZM39.3753 143.166L42.4013 141.296C42.9227 141.795 43.444 142.35 43.9653 142.962C44.4867 143.574 44.974 144.186 45.4273 144.798C45.9033 145.387 46.266 145.931 46.5153 146.43L43.2853 148.538C43.0587 148.039 42.73 147.484 42.2993 146.872C41.8687 146.237 41.3927 145.603 40.8713 144.968C40.3727 144.311 39.874 143.71 39.3753 143.166ZM25.3673 139.222C26.478 138.973 27.736 138.667 29.1413 138.304C30.5693 137.941 32.0653 137.545 33.6293 137.114C35.216 136.661 36.7913 136.207 38.3553 135.754L38.8653 139.358C36.7347 140.015 34.5587 140.684 32.3373 141.364C30.1387 142.021 28.144 142.611 26.3533 143.132L25.3673 139.222ZM31.4533 121.134H35.1933V153.06H31.4533V121.134ZM26.9653 122.868L30.3993 123.446C30.2407 124.942 30.048 126.449 29.8213 127.968C29.5947 129.464 29.3227 130.881 29.0053 132.218C28.688 133.555 28.3253 134.734 27.9173 135.754C27.7133 135.573 27.43 135.369 27.0673 135.142C26.7047 134.915 26.342 134.689 25.9793 134.462C25.6167 134.213 25.2993 134.02 25.0273 133.884C25.39 132.977 25.696 131.923 25.9453 130.722C26.2173 129.521 26.4327 128.251 26.5913 126.914C26.7727 125.554 26.8973 124.205 26.9653 122.868ZM27.9173 127.526H38.0493V131.402H27.1353L27.9173 127.526Z" fill="#004098"/>
<path d="M127.232 75.9079H145.864V79.1039H127.232V75.9079ZM128.116 80.4639H145.15V83.5239H128.116V80.4639ZM126.552 84.9859H146.51V88.3179H126.552V84.9859ZM140.288 72.0659L144.368 73.0179C143.892 73.7886 143.439 74.5253 143.008 75.2279C142.577 75.9306 142.181 76.5312 141.818 77.0299L138.656 76.1119C138.951 75.5226 139.245 74.8426 139.54 74.0719C139.857 73.3013 140.107 72.6326 140.288 72.0659ZM129.374 73.2559L132.604 72.1679C132.989 72.7573 133.363 73.4033 133.726 74.1059C134.111 74.8086 134.383 75.4206 134.542 75.9419L131.142 77.1659C131.006 76.6446 130.768 76.0099 130.428 75.2619C130.088 74.5139 129.737 73.8453 129.374 73.2559ZM143.246 88.9299L146.34 91.1059C145.592 91.8993 144.787 92.6813 143.926 93.4519C143.087 94.2226 142.339 94.8799 141.682 95.4239L139.064 93.4519C139.495 93.0666 139.971 92.6133 140.492 92.0919C141.013 91.5706 141.512 91.0379 141.988 90.4939C142.487 89.9273 142.906 89.4059 143.246 88.9299ZM127.232 90.9019L129.986 89.0659C130.598 89.6779 131.233 90.3806 131.89 91.1739C132.547 91.9446 133.046 92.6246 133.386 93.2139L130.462 95.2539C130.145 94.6419 129.68 93.9279 129.068 93.1119C128.456 92.2733 127.844 91.5366 127.232 90.9019ZM125.226 98.5519C126.269 98.0986 127.493 97.5206 128.898 96.8179C130.303 96.1153 131.743 95.3786 133.216 94.6079L134.27 97.9059C133.069 98.6086 131.833 99.3226 130.564 100.048C129.295 100.751 128.116 101.397 127.028 101.986L125.226 98.5519ZM134.576 78.0839H138.52V100.014C138.52 100.921 138.418 101.635 138.214 102.156C138.033 102.7 137.659 103.119 137.092 103.414C136.525 103.731 135.834 103.924 135.018 103.992C134.225 104.083 133.295 104.128 132.23 104.128C132.162 103.584 132.026 102.961 131.822 102.258C131.618 101.555 131.391 100.966 131.142 100.49C131.731 100.513 132.309 100.535 132.876 100.558C133.465 100.558 133.851 100.558 134.032 100.558C134.259 100.558 134.406 100.513 134.474 100.422C134.542 100.331 134.576 100.184 134.576 99.9799V78.0839ZM138.282 88.9299C138.803 90.4486 139.472 91.8766 140.288 93.2139C141.104 94.5513 142.09 95.7299 143.246 96.7499C144.402 97.7699 145.705 98.5746 147.156 99.1639C146.884 99.4133 146.578 99.7419 146.238 100.15C145.921 100.535 145.603 100.932 145.286 101.34C144.991 101.748 144.753 102.122 144.572 102.462C143.099 101.669 141.784 100.626 140.628 99.3339C139.495 98.0193 138.509 96.5346 137.67 94.8799C136.854 93.2253 136.174 91.4459 135.63 89.5419L138.282 88.9299ZM115.23 79.1719H126.484V82.9459H115.23V79.1719ZM119.378 72.0999H123.05V104.026H119.378V72.0999ZM119.31 81.7559L121.554 82.5039C121.327 83.8639 121.033 85.2693 120.67 86.7199C120.307 88.1479 119.899 89.5646 119.446 90.9699C118.993 92.3526 118.494 93.6446 117.95 94.8459C117.429 96.0473 116.862 97.0786 116.25 97.9399C116.069 97.4186 115.785 96.8066 115.4 96.1039C115.037 95.4013 114.709 94.8233 114.414 94.3699C114.958 93.6219 115.479 92.7493 115.978 91.7519C116.477 90.7546 116.941 89.6893 117.372 88.5559C117.803 87.4226 118.177 86.2779 118.494 85.1219C118.834 83.9433 119.106 82.8212 119.31 81.7559ZM122.88 84.2039C123.061 84.4306 123.345 84.8386 123.73 85.4279C124.138 85.9946 124.569 86.6179 125.022 87.2979C125.475 87.9553 125.883 88.5786 126.246 89.1679C126.631 89.7346 126.892 90.1313 127.028 90.3579L124.92 93.2819C124.716 92.8059 124.455 92.2279 124.138 91.5479C123.821 90.8679 123.469 90.1653 123.084 89.4399C122.721 88.7146 122.37 88.0346 122.03 87.3999C121.713 86.7653 121.429 86.2439 121.18 85.8359L122.88 84.2039Z" fill="#004098"/>
<path d="M88.1667 76.35V78.56H101.971V76.35H88.1667ZM84.0527 73.188H106.289V81.722H84.0527V73.188ZM86.5687 89.814V91.276H103.263V89.814H86.5687ZM86.5687 93.86V95.322H103.263V93.86H86.5687ZM86.5687 85.802V87.23H103.263V85.802H86.5687ZM82.5227 83.014H107.513V98.11H82.5227V83.014ZM89.1187 97.396L92.7227 99.946C91.816 100.49 90.7507 101.023 89.5267 101.544C88.3254 102.065 87.0787 102.541 85.7867 102.972C84.5174 103.425 83.3047 103.788 82.1487 104.06C81.7634 103.629 81.2647 103.131 80.6527 102.564C80.0634 101.997 79.5307 101.521 79.0547 101.136C80.256 100.864 81.4914 100.524 82.7607 100.116C84.03 99.708 85.2314 99.266 86.3647 98.79C87.498 98.314 88.416 97.8493 89.1187 97.396ZM96.5647 100.15L100.169 97.6C101.37 97.8947 102.639 98.2687 103.977 98.722C105.314 99.1527 106.606 99.5947 107.853 100.048C109.122 100.479 110.221 100.875 111.151 101.238L107.547 104.128C106.663 103.72 105.586 103.267 104.317 102.768C103.07 102.292 101.767 101.827 100.407 101.374C99.0694 100.921 97.7887 100.513 96.5647 100.15Z" fill="#004098"/>
<path d="M45.4604 99.028C47.4778 98.96 49.8124 98.892 52.4644 98.824C55.1391 98.7333 57.9384 98.6313 60.8624 98.518C63.8091 98.4046 66.7104 98.2913 69.5664 98.178L69.4304 101.918C66.6651 102.077 63.8544 102.213 60.9984 102.326C58.1651 102.462 55.4678 102.587 52.9064 102.7C50.3451 102.836 48.0331 102.949 45.9704 103.04L45.4604 99.028ZM45.2904 88.93H73.5444V92.738H45.2904V88.93ZM51.3424 82.368H67.2884V86.108H51.3424V82.368ZM53.5864 91.412L58.2444 92.67C57.7231 93.7353 57.1678 94.8233 56.5784 95.934C56.0118 97.022 55.4451 98.0646 54.8784 99.062C54.3344 100.059 53.8131 100.943 53.3144 101.714L49.7444 100.524C50.1978 99.6853 50.6738 98.7446 51.1724 97.702C51.6711 96.6366 52.1244 95.56 52.5324 94.472C52.9631 93.3613 53.3144 92.3413 53.5864 91.412ZM62.0524 94.914L65.6224 93.01C66.6424 93.894 67.6511 94.846 68.6484 95.866C69.6458 96.886 70.5638 97.9173 71.4024 98.96C72.2411 99.98 72.9211 100.921 73.4424 101.782L69.6344 104.094C69.1811 103.233 68.5351 102.258 67.6964 101.17C66.8804 100.105 65.9738 99.0166 64.9764 97.906C64.0018 96.7953 63.0271 95.798 62.0524 94.914ZM59.2644 76.078C58.3578 77.37 57.1904 78.696 55.7624 80.056C54.3344 81.3933 52.7478 82.6626 51.0024 83.864C49.2571 85.0653 47.4438 86.1193 45.5624 87.026C45.4264 86.686 45.2111 86.312 44.9164 85.904C44.6444 85.4733 44.3498 85.0653 44.0324 84.68C43.7378 84.272 43.4431 83.9206 43.1484 83.626C45.0978 82.7646 46.9678 81.6993 48.7584 80.43C50.5491 79.138 52.1471 77.778 53.5524 76.35C54.9804 74.8993 56.1138 73.5053 56.9524 72.168H61.2364C62.1431 73.4146 63.1518 74.5933 64.2624 75.704C65.3731 76.8146 66.5518 77.8346 67.7984 78.764C69.0451 79.6706 70.3258 80.4866 71.6404 81.212C72.9778 81.9146 74.3264 82.5153 75.6864 83.014C75.1878 83.5126 74.7118 84.102 74.2584 84.782C73.8051 85.462 73.3971 86.108 73.0344 86.72C71.3344 85.9266 69.6118 84.952 67.8664 83.796C66.1211 82.64 64.4891 81.3933 62.9704 80.056C61.4744 78.7186 60.2391 77.3926 59.2644 76.078Z" fill="#004098"/>
</svg>
