<svg width="646" height="255" viewBox="0 0 646 255" fill="none" xmlns="http://www.w3.org/2000/svg">
<path d="M0 51.5H646V254.5H0V51.5Z" fill="#004098"/>
<path d="M566.345 192.707L576.197 216.666L572.525 218.123L563.897 197.312L552.704 218.298L549.148 216.433L565.937 185.012C567.026 182.68 567.647 180.27 567.803 177.783C567.531 176.345 566.676 175.587 565.238 175.51H549.906V171.546H565.238C569.124 171.818 571.32 173.897 571.825 177.783C571.631 180.97 570.854 184.001 569.493 186.877L566.345 192.707Z" fill="white"/>
<path d="M496.685 217.832C492.644 217.443 490.467 215.267 490.156 211.303V170.788H494.12V183.03H501.932C503.875 182.797 505.294 181.825 506.187 180.115L508.169 174.927L511.9 176.326L509.977 181.456C508.344 184.876 505.663 186.741 501.932 187.052H494.12V211.303C494.276 212.819 495.131 213.674 496.685 213.868H513.474V217.832H496.685ZM508.986 172.77V168.398H513.299V172.77H508.986ZM516.039 172.77V168.398H520.353V172.77H516.039Z" fill="white"/>
<path d="M425.504 196.729V192.299H459.781V196.729H425.504Z" fill="white"/>
<path d="M392.803 170.846V176.501H398.924V180.465H392.803V187.577C392.725 190.802 392.22 193.989 391.287 197.137L384.117 218.473L380.328 217.132L387.498 195.855C388.314 193.173 388.761 190.414 388.839 187.577V180.465H376.655V191.074H372.633V180.465H367.328V176.501H372.633V170.846H376.655V176.501H388.839V170.846H392.803Z" fill="white"/>
<path d="M328.502 192.707L338.354 216.666L334.681 218.123L326.053 197.312L314.861 218.298L311.305 216.433L328.094 185.012C329.182 182.68 329.804 180.27 329.959 177.783C329.687 176.345 328.832 175.587 327.394 175.51H312.063V171.546H327.394C331.28 171.818 333.476 173.897 333.981 177.783C333.787 180.97 333.01 184.001 331.65 186.877L328.502 192.707Z" fill="white"/>
<path d="M262.631 190.491L252.896 200.401L250.039 197.545L266.128 181.222C267.644 179.474 268.519 177.453 268.752 175.16V170.788H272.774V175.16C272.502 178.541 271.239 181.514 268.985 184.079L265.429 187.635L266.537 188.859C268.363 191.269 269.296 194.047 269.335 197.195V218.939H265.371V197.195C265.371 195.135 264.788 193.27 263.622 191.599L262.631 190.491Z" fill="white"/>
<path d="M196.582 196.671L192.851 219.406L188.945 218.765L192.676 196.029C193.104 193.115 193.337 190.219 193.376 187.343V170.904H197.34V187.343C197.301 190.453 197.048 193.562 196.582 196.671ZM212.905 180.173L218.268 192.473C219.434 195.505 220.114 198.711 220.308 202.092V216.374H216.286V202.092C216.13 199.333 215.586 196.671 214.653 194.106L209.232 181.747L212.905 180.173ZM214.245 175.626V171.312H218.559V175.626H214.245ZM221.416 175.626V171.312H225.729V175.626H221.416Z" fill="white"/>
<path d="M155.424 193.523L160.671 199.236L157.697 201.917L152.451 196.204C150.702 194.572 148.662 193.678 146.33 193.523H139.276V219.114H135.254V170.904H139.276V189.559H146.33C149.828 189.753 152.859 191.074 155.424 193.523ZM150.994 178.949V174.635H155.307V178.949H150.994ZM158.047 178.949V174.635H162.361V178.949H158.047Z" fill="white"/>
<path d="M95.7882 177.9C95.5939 176.423 94.7389 175.646 93.2232 175.568H73.5195V171.604H93.2232C97.1873 171.915 99.3637 174.013 99.7523 177.9C99.4802 181.32 98.2172 184.312 95.9631 186.877L87.1606 195.738V202.092C87.0051 205.395 86.325 208.563 85.1202 211.594L81.7391 219.231L78.0665 217.657L81.5059 209.962C82.4775 207.436 83.0411 204.812 83.1965 202.092V180.639H87.1606V190.083L93.165 184.079C94.6806 182.33 95.555 180.27 95.7882 177.9Z" fill="white"/>
<path d="M520.76 109.106V85.7295H524.724V109.106C524.646 112.254 524.316 115.382 523.733 118.491L520.527 134.173L516.562 133.415L519.827 117.675C520.332 114.838 520.643 111.982 520.76 109.106ZM541.105 126.827L542.795 107.124L546.701 107.415L545.127 127.119C544.933 128.829 544.233 130.325 543.028 131.608C541.785 132.812 540.308 133.454 538.598 133.531C534.789 133.026 532.769 130.83 532.535 126.944V85.7295H536.499V126.944C536.538 128.382 537.238 129.237 538.598 129.509C540.036 129.237 540.872 128.343 541.105 126.827Z" fill="white"/>
<path d="M467.42 134.581L464.505 107.357L460.599 108.523L459.375 104.908L464.039 103.335L463.397 97.3301L467.303 96.8638L467.886 102.169L476.98 99.3122C478.418 98.8069 479.759 99.0013 481.002 99.8951C482.168 100.789 482.771 101.994 482.81 103.509V107.94C482.615 110.66 481.605 113.05 479.778 115.11L476.863 117.967L474.007 115.227L477.038 112.37C478.088 111.088 478.69 109.611 478.846 107.94V103.509C478.846 103.276 478.787 103.101 478.671 102.985C478.515 102.868 478.36 102.849 478.204 102.926L468.352 106.133L471.267 134.114L467.42 134.581Z" fill="white"/>
<path d="M398.922 92.0835V88.0611H409.94V92.0835H398.922ZM398.922 108.056V104.092H409.94V108.056H398.922ZM422.356 102.926V85.7876H426.321V102.926C426.165 106.269 425.33 109.436 423.814 112.428L411.28 133.998L407.783 131.957L420.374 110.446C421.54 108.037 422.201 105.53 422.356 102.926Z" fill="white"/>
<path d="M362.839 102.577V85.8459H366.803V102.577C366.609 105.997 365.618 109.164 363.83 112.079L348.032 134.056L344.826 131.724L360.565 109.747C361.925 107.532 362.683 105.142 362.839 102.577ZM347.74 97.4467C346.264 95.9699 344.515 95.1732 342.494 95.0566H338.238V91.0342H342.494C344.087 91.0731 345.642 91.4423 347.157 92.1418C348.595 92.8025 349.839 93.7352 350.888 94.94L353.395 98.0296L350.247 100.536L347.74 97.4467Z" fill="white"/>
<path d="M280.816 96.8055V92.8415H297.955V85.9626H301.977V92.8415H306.816V96.8055H301.977V111.03C301.822 114.333 300.986 117.481 299.471 120.473L291.892 133.823L288.395 131.783L295.973 118.55C297.139 116.14 297.8 113.633 297.955 111.03V96.8055H280.816Z" fill="white"/>
<path d="M232.9 105.491L223.165 115.401L220.309 112.545L236.398 96.2224C237.914 94.4736 238.788 92.4527 239.021 90.1597V85.7876H243.044V90.1597C242.772 93.5408 241.509 96.5139 239.254 99.0789L235.698 102.635L236.806 103.859C238.633 106.269 239.565 109.047 239.604 112.195V133.939H235.64V112.195C235.64 110.135 235.057 108.27 233.891 106.599L232.9 105.491Z" fill="white"/>
<path d="M182.239 102.985C182.122 102.169 181.636 101.741 180.781 101.702H165.566V97.7964H180.781C184.007 98.0684 185.775 99.7979 186.086 102.985C185.892 105.627 184.92 107.959 183.172 109.98L176.701 116.567V121.114C176.584 123.641 176.06 126.069 175.127 128.401L172.387 134.581L168.831 133.007L171.571 126.886C172.27 125.02 172.678 123.096 172.795 121.114V104.617H176.701V111.029L180.373 107.357C181.423 106.074 182.044 104.617 182.239 102.985Z" fill="white"/>
<path d="M127.734 93.0163V102.81C127.578 106.113 126.859 109.281 125.577 112.312L115.375 133.706L111.819 131.957L121.962 110.621C122.973 108.095 123.575 105.491 123.77 102.81V93.0163C123.575 91.423 122.72 90.568 121.205 90.4514H103.191V86.4873H121.205C125.13 86.7982 127.306 88.9746 127.734 93.0163Z" fill="white"/>
<path d="M388.744 28.8253C389.526 27.2095 389.969 25.5156 390.073 23.7434V9.35755C389.969 8.3151 389.408 7.74175 388.392 7.6375H385.695V17.7232C385.616 19.8863 385.278 22.0103 384.678 24.0952L382.685 30.3499C382.111 32.3827 380.808 33.6597 378.775 34.1809C376.664 33.5815 375.674 32.1221 375.804 29.8026V9.35755C376.039 6.64717 377.511 5.18774 380.222 4.97925H388.392C391.076 5.23986 392.536 6.6993 392.77 9.35755V23.7434C392.666 25.9847 392.106 28.1087 391.089 30.1154L388.626 34.4937L386.32 33.2036L388.744 28.8253ZM383.036 17.7232V7.6375H380.222C379.179 7.74175 378.606 8.3151 378.502 9.35755V29.8026C378.476 30.376 378.606 30.9233 378.893 31.4445C379.44 30.9233 379.857 30.2848 380.144 29.529L382.137 23.2743C382.658 21.45 382.958 19.5996 383.036 17.7232Z" fill="#004098"/>
<path d="M350.747 13.7751V2.55566H353.405V13.7751C353.275 16.0684 352.61 18.1924 351.411 20.147L340.817 34.8847L338.667 33.321L349.222 18.5834C350.134 17.0979 350.643 15.4951 350.747 13.7751ZM340.622 10.335C339.632 9.34463 338.459 8.81038 337.104 8.73219H334.25V6.03485H337.104C338.172 6.06091 339.215 6.30849 340.231 6.77759C341.195 7.22064 342.029 7.84611 342.733 8.65401L344.414 10.7259L342.303 12.4068L340.622 10.335Z" fill="#004098"/>
<path d="M310.871 12.7976V5.40921H313.529V12.7976C313.399 15.0649 312.747 17.1759 311.575 19.1305L300.981 34.4545L298.792 32.969L309.386 17.6059C310.272 16.0943 310.767 14.4916 310.871 12.7976ZM295.391 8.8493V4.62737H298.049V8.8493C298.127 10.5433 298.635 12.133 299.573 13.6185L301.411 16.2377L299.222 17.7623L297.345 15.1822C296.146 13.2276 295.495 11.1166 295.391 8.8493ZM310.441 3.76735V0.835449H313.373V3.76735H310.441ZM315.171 3.76735V0.835449H318.103V3.76735H315.171Z" fill="#004098"/>
<path d="M258.803 2.47729H261.462V6.3474H269.593C270.792 6.3474 271.769 6.82953 272.525 7.7938C273.098 8.81019 273.176 9.89173 272.759 11.0384L268.146 22.2969L265.605 21.3196L270.296 10.0611C270.427 9.80052 270.44 9.53991 270.335 9.27929C270.101 9.0708 269.853 8.97959 269.593 9.00565H261.462V30.1935C261.566 31.2099 262.139 31.7832 263.182 31.9135H272.407V34.6109H263.182C260.497 34.3242 259.038 32.8517 258.803 30.1935V9.00565H255.402V6.3474H258.803V2.47729Z" fill="#004098"/>
</svg>
