<svg width="327" height="80" viewBox="0 0 327 80" fill="none" xmlns="http://www.w3.org/2000/svg">
<path d="M279.643 79.108C276.991 78.7227 275.597 77.1813 275.461 74.484V53.37H278.759V74.484C278.736 75.1413 279.031 75.5833 279.643 75.81C280.482 75.5607 281.048 75.0053 281.343 74.144L282.669 69.384L285.831 70.268L284.505 75.028C284.165 76.1387 283.576 77.0793 282.737 77.85C281.83 78.6433 280.799 79.0627 279.643 79.108ZM291.101 56.804L293.481 62.856C294.206 64.9187 294.614 67.038 294.705 69.214V75.878H291.373V69.214C291.282 67.446 290.954 65.7347 290.387 64.08L288.007 57.994L291.101 56.804Z" fill="#004098"/>
<path d="M251.289 50.582L252.071 54.254H259.279V57.586H252.717L254.587 66.97C254.927 68.3527 254.678 69.6334 253.839 70.812C253.272 71.492 252.535 71.8547 251.629 71.9H249.657V68.568H251.323C251.391 68.2507 251.391 67.9447 251.323 67.65L249.351 57.586H242.075V54.254H248.671L248.059 51.228L251.289 50.582ZM240.715 70.03H244.013V74.484C244.081 75.3 244.523 75.742 245.339 75.81H250.439V79.108H245.339C242.506 78.836 240.964 77.2947 240.715 74.484V70.03Z" fill="#004098"/>
<path d="M224.054 62.516C224.553 63.4907 224.542 64.4654 224.02 65.44L222.898 67.514L219.974 65.916L220.892 64.25C220.824 64.25 220.756 64.25 220.688 64.25H215.044V60.918H220.688C222.094 60.8727 223.216 61.4054 224.054 62.516ZM212.8 72.206H216.132V74.824C216.336 75.4587 216.778 75.7647 217.458 75.742H224.054V79.074H217.458C214.716 78.9153 213.163 77.4987 212.8 74.824V72.206ZM211.372 56.906V64.964C211.327 67.072 211.112 69.1574 210.726 71.22L209.128 78.802L205.898 78.122L207.496 70.574C207.836 68.7153 208.018 66.8453 208.04 64.964V56.906H206V53.608H208.04V50.956H211.372V53.608H217.39V56.906H211.372ZM219.192 53.506V50.718H221.98V53.506H219.192ZM223.306 53.506V50.718H226.128V53.506H223.306Z" fill="#004098"/>
<path d="M183.56 79.516L175.706 67.854C175.026 66.8113 174.697 65.678 174.72 64.454C174.72 63.2073 175.083 62.074 175.808 61.054L183.254 50.616L185.94 52.52L178.494 62.992C177.95 63.9893 177.939 64.998 178.46 66.018L186.314 77.68L183.56 79.516Z" fill="#004098"/>
<path d="M148.436 50.956H151.768V56.464H154.522V59.762H151.768V64.25C151.768 65.3607 151.474 66.3807 150.884 67.31C150.204 68.3073 149.264 68.84 148.062 68.908H145.954V65.576H147.994C148.312 65.1907 148.459 64.7487 148.436 64.25V59.762H143.506V74.518C143.552 75.3113 143.994 75.7533 144.832 75.844H152.006V79.142H144.832C141.976 78.8473 140.424 77.306 140.174 74.518V59.762H137.488V56.464H140.174V50.956H143.506V56.464H148.436V50.956Z" fill="#004098"/>
<path d="M118.62 53.132L121.068 60.986C121.657 63.162 121.487 65.2813 120.558 67.344L119.266 69.452L116.41 67.786L117.702 65.644C118.178 64.42 118.235 63.2073 117.872 62.006L115.424 54.118L118.62 53.132ZM102.776 74.008C103.365 72.376 103.694 70.676 103.762 68.908V59.864H101.858V56.532H103.762V50.888H107.094V56.532H109.372C112.205 56.804 113.758 58.3567 114.03 61.19V74.382C113.871 77.102 112.489 78.6547 109.882 79.04H107.366V75.708H109.882C110.426 75.4813 110.709 75.0393 110.732 74.382V61.19C110.664 60.374 110.211 59.932 109.372 59.864H107.094V68.908C107.026 71.1067 106.618 73.226 105.87 75.266L104.34 79.04L101.246 77.748L102.776 74.008Z" fill="#004098"/>
<path d="M69.5574 57.756V59.524H73.2634V57.756H69.5574ZM69.5574 54.968H73.2634V53.234H69.5574V54.968ZM84.0414 57.756H80.0974V59.524H84.0414V57.756ZM84.0414 54.968V53.234H80.0974V54.968H84.0414ZM78.7374 73.192H74.8954V74.45C75.6887 74.382 76.9694 74.2347 78.7374 74.008V73.192ZM78.7374 69.962H74.8954V71.118H78.7374V69.962ZM78.7374 67.888V66.732H74.8954V67.888H78.7374ZM66.1914 49.902H76.2554V62.55H69.5574V79.992H66.1914V49.902ZM83.5314 79.89C82.9874 79.89 82.1261 79.8333 80.9474 79.72V79.04H78.7374V76.762C75.4961 77.1926 72.7081 77.4533 70.3734 77.544L70.3054 74.722C70.5774 74.6993 70.8947 74.688 71.2574 74.688C71.6201 74.6653 71.8241 74.654 71.8694 74.654V66.732H70.4074V63.91H83.1914V66.732H81.7634V76.048C82.3754 76.116 82.7947 76.15 83.0214 76.15C83.5427 76.15 83.8374 76.082 83.9054 75.946C83.9961 75.7873 84.0414 75.3226 84.0414 74.552V62.55H77.1054V49.902H87.4074V74.348C87.4074 75.2773 87.3961 76.014 87.3734 76.558C87.3507 77.0793 87.2827 77.5666 87.1694 78.02C87.0787 78.496 86.9541 78.836 86.7954 79.04C86.6367 79.244 86.3874 79.414 86.0474 79.55C85.7301 79.7087 85.3787 79.7993 84.9934 79.822C84.6307 79.8673 84.1434 79.89 83.5314 79.89Z" fill="#004098"/>
<path d="M37.8702 79.04C36.6236 78.9947 35.6262 78.496 34.8782 77.544C34.1756 76.6147 33.8242 75.5607 33.8242 74.382V67.514C34.0962 64.6807 35.6489 63.128 38.4822 62.856H38.5842V56.702H34.4702V53.404H38.5842V50.888H41.8822V53.404H46.2342V56.702H41.8822V62.856H45.0442C47.8549 63.128 49.4076 64.6807 49.7022 67.514V74.382C49.6796 76.966 48.4556 78.5187 46.0302 79.04H44.0922V75.708H45.9282C46.2229 75.3 46.3702 74.858 46.3702 74.382V67.514C46.2796 66.698 45.8376 66.256 45.0442 66.188H41.8822V74.382C41.8822 75.538 41.5309 76.592 40.8282 77.544C40.0576 78.496 39.0716 78.9947 37.8702 79.04ZM37.1562 67.514V74.382C37.1336 74.9713 37.3716 75.4133 37.8702 75.708C38.3462 75.436 38.5842 74.994 38.5842 74.382V66.188H38.4822C37.6662 66.256 37.2242 66.698 37.1562 67.514ZM52.2862 62.176L49.0222 62.856L47.6282 56.09L50.8922 55.41L52.2862 62.176Z" fill="#004098"/>
<path d="M321.599 15.332C320.715 16.6694 320.227 18.1314 320.137 19.718V22.608C320.25 24.104 320.76 25.4754 321.667 26.722L324.081 29.374L321.633 31.584L319.185 28.898C318.437 27.9914 317.87 27.0054 317.485 25.94C317.031 24.8294 316.805 23.7187 316.805 22.608V19.718C316.827 18.562 317.031 17.44 317.417 16.352C317.779 15.264 318.278 14.2554 318.913 13.326L323.163 7.71602H311.977V4.38402H323.503C324.863 4.33869 325.894 4.88269 326.597 6.01602C327.073 7.24002 326.88 8.38469 326.019 9.45002L321.599 15.332Z" fill="#004098"/>
<path d="M279.643 31.108C276.991 30.7227 275.597 29.1813 275.461 26.484V5.37H278.759V26.484C278.736 27.1413 279.031 27.5833 279.643 27.81C280.482 27.5607 281.048 27.0053 281.343 26.144L282.669 21.384L285.831 22.268L284.505 27.028C284.165 28.1387 283.576 29.0793 282.737 29.85C281.83 30.6433 280.799 31.0627 279.643 31.108ZM291.101 8.804L293.481 14.856C294.206 16.9187 294.614 19.038 294.705 21.214V27.878H291.373V21.214C291.282 19.446 290.954 17.7347 290.387 16.08L288.007 9.994L291.101 8.804Z" fill="#004098"/>
<path d="M259.041 20.602C258.996 21.8034 258.701 22.9367 258.157 24.002C257.658 25.0674 256.956 25.9854 256.049 26.756L251.799 30.02L249.759 27.436L253.975 24.104C254.995 23.152 255.573 21.9847 255.709 20.602V10.946C255.641 10.13 255.199 9.68803 254.383 9.62003H241.871V6.28802H254.383C257.216 6.56003 258.769 8.11269 259.041 10.946V20.602Z" fill="#004098"/>
<path d="M205.66 2.922H208.992V21.214C209.015 23.0273 209.275 24.818 209.774 26.586L210.794 29.884L207.632 30.904L206.578 27.538C206.011 25.4527 205.705 23.3447 205.66 21.214V2.922ZM223.884 7.036C224.451 8.192 224.428 9.348 223.816 10.504L222.32 13.326L219.396 11.796L220.858 8.94C220.903 8.872 220.937 8.804 220.96 8.736C220.869 8.736 220.801 8.736 220.756 8.736H215.078V5.438H220.756C222.071 5.41533 223.113 5.948 223.884 7.036ZM212.8 26.756V24.138H216.132V26.756C216.336 27.3907 216.778 27.6967 217.458 27.674H224.054V31.006H217.458C214.715 30.8473 213.163 29.4307 212.8 26.756Z" fill="#004098"/>
<path d="M173.395 31.108V32.332H170.233V21.962H178.461V23.22C179.118 21.4067 179.617 19.446 179.957 17.338C179.753 17.542 179.549 17.6667 179.345 17.712L178.325 13.802C180.252 12.8727 181.6 11.7054 182.371 10.3C183.119 8.89469 183.493 6.94536 183.493 4.45202V1.46002H186.859V4.45202C186.859 5.94802 186.995 7.26269 187.267 8.39602C188.06 6.60536 188.706 4.56536 189.205 2.27602L192.095 3.29602C191.642 5.65336 190.95 7.89736 190.021 10.028L187.369 8.70202C187.55 9.26869 187.777 9.77869 188.049 10.232C188.842 11.6374 190.248 12.8274 192.265 13.802L191.483 17.168L192.231 17.474C191.778 19.8314 191.064 22.0754 190.089 24.206L187.335 22.778C187.516 23.4354 187.766 24.036 188.083 24.58C188.899 25.9854 190.338 27.1754 192.401 28.15L191.381 32.06C188.593 30.904 186.564 28.7734 185.295 25.668C184.026 28.796 182.042 30.9267 179.345 32.06L178.461 28.626V31.108H173.395ZM173.395 27.844H175.571V25.226H173.395V27.844ZM183.493 15.162H186.859V18.8C186.859 20.3187 187.006 21.6334 187.301 22.744C188.094 20.976 188.729 18.9587 189.205 16.692C187.505 15.4454 186.202 13.6774 185.295 11.388C184.252 13.9267 182.836 15.8194 181.045 17.066L183.017 17.814C182.609 20.1487 181.986 22.4267 181.147 24.648L178.461 23.322V28.082C180.32 27.1754 181.623 26.0307 182.371 24.648C183.119 23.2427 183.493 21.2934 183.493 18.8V15.162ZM170.233 5.74402V2.31002H178.359V5.74402H170.233ZM169.621 10.844V7.17202H178.903V8.77002C179.56 6.88869 180.082 4.88269 180.467 2.75202L183.357 3.63602C182.972 5.99336 182.371 8.28269 181.555 10.504L178.903 9.21202V10.844H169.621ZM170.437 15.672V12.34H178.325V13.802V15.672H170.437ZM170.437 20.466V17.168H178.325V20.466H170.437Z" fill="#004098"/>
<path d="M147.654 22.132V26.688H152.958V22.132H147.654ZM147.654 14.04V18.562H152.958V14.04H147.654ZM147.654 10.47H152.958V5.94797H147.654V10.47ZM135.108 7.23997H138.304V1.35797H141.636V7.23997H143.982V11.082H142.112C143.404 14.3686 144.152 16.5446 144.356 17.61V2.24197H156.392V31.822H152.958V30.258H147.654V31.822H144.356V20.024L143.098 21.69C142.6 20.3526 142.112 18.732 141.636 16.828V32.162H138.304V18.97C137.828 21.962 137.001 24.4553 135.822 26.45L134.156 22.234C135.924 18.6526 137.126 14.9353 137.76 11.082H135.108V7.23997Z" fill="#004098"/>
<path d="M114.744 25.838C115.492 24.3193 115.911 22.7326 116.002 21.078V9.07597C115.934 8.25997 115.492 7.81797 114.676 7.74997H113.18V15.808C113.112 17.9613 112.783 20.0806 112.194 22.166L110.63 26.96C110.312 27.8666 109.859 28.728 109.27 29.544C108.612 30.4053 107.74 30.8813 106.652 30.972C105.45 30.8586 104.623 30.2466 104.17 29.136C103.762 28.2293 103.569 27.2886 103.592 26.314V9.07597C103.841 6.21997 105.382 4.6673 108.216 4.41797H114.676C117.509 4.68997 119.05 6.24264 119.3 9.07597V21.078C119.186 23.3446 118.631 25.4753 117.634 27.47L115.662 31.006L112.772 29.34L114.744 25.838ZM109.848 15.808V7.74997H108.216C107.4 7.81797 106.958 8.25997 106.89 9.07597V26.314C106.89 26.5633 106.912 26.79 106.958 26.994C107.162 26.654 107.332 26.3026 107.468 25.94L108.998 21.146C109.496 19.4006 109.78 17.6213 109.848 15.808Z" fill="#004098"/>
<path d="M69.1487 14.55V22.438C69.6247 22.438 69.942 22.2793 70.1007 21.962C70.2594 21.622 70.3387 20.9307 70.3387 19.888C70.3387 18.9133 70.2254 18.0407 69.9987 17.27C69.7947 16.4993 69.5114 15.5927 69.1487 14.55ZM70.8147 5.53998H69.1487V12.442C69.806 9.99399 70.3614 7.69332 70.8147 5.53998ZM73.6707 14.822C73.2854 13.938 72.7754 12.8613 72.1407 11.592C71.9367 12.2947 71.7327 12.952 71.5287 13.564C72.0047 14.448 72.3447 15.4 72.5487 16.42C72.9567 15.8533 73.3307 15.3207 73.6707 14.822ZM75.9827 11.286C75.688 10.6287 75.2687 9.65399 74.7247 8.36198C74.294 9.17798 74.1014 9.59732 74.1467 9.61999C74.736 10.8667 75.1554 11.8527 75.4047 12.578C75.7674 11.7847 75.96 11.354 75.9827 11.286ZM77.3767 8.66799C77.626 7.80665 77.864 6.91132 78.0907 5.98199H76.3567C76.674 6.70732 77.014 7.60265 77.3767 8.66799ZM83.9387 9.85799C84.3014 8.65665 84.6074 7.38732 84.8567 6.04999H82.7827C83.1227 7.43265 83.508 8.70199 83.9387 9.85799ZM83.8027 15.332V16.76H76.9007V15.366C76.2887 16.726 75.6087 17.9273 74.8607 18.97H85.8087C85.0834 17.9273 84.4147 16.7147 83.8027 15.332ZM82.1707 13.122C81.3774 11.3767 80.7654 9.71065 80.3347 8.12399C79.836 9.91465 79.224 11.5807 78.4987 13.122H82.1707ZM78.1587 28.252C78.476 28.252 78.646 28.2067 78.6687 28.116C78.714 28.0253 78.7367 27.6967 78.7367 27.13V22.642H76.3227L77.7507 24.24C76.5947 26.96 75.144 29.374 73.3987 31.482L71.1887 28.898C72.6847 27.0393 73.8974 24.954 74.8267 22.642H73.2967V20.466C73.274 20.4887 73.2627 20.5113 73.2627 20.534V20.772C73.2627 22.5853 72.9794 23.9 72.4127 24.716C71.846 25.532 70.9394 25.94 69.6927 25.94H69.2847L69.1487 23.186V32.06H66.0547V2.13999H73.8407V4.51999C74.3167 3.22799 74.804 1.92465 75.3027 0.609985L77.5807 2.30999C77.5807 2.35532 77.5694 2.43465 77.5467 2.54799C77.524 2.66132 77.5127 2.75198 77.5127 2.81999H78.6687C78.578 2.32132 78.4874 1.89065 78.3967 1.52799L81.5247 1.05199C81.8647 2.68398 82.114 4.23665 82.2727 5.70998V2.58199H87.9167V6.04999C87.3954 8.52065 86.7154 10.844 85.8767 13.02C86.6247 14.2893 87.6107 15.5587 88.8347 16.828L87.7127 20.636C87.486 20.4773 87.3387 20.364 87.2707 20.296V22.642H84.9927C86.2167 24.818 87.3614 27.0053 88.4267 29.204L86.0467 31.618C84.7774 29.17 83.4514 26.8127 82.0687 24.546V27.64C82.0687 29.544 81.9214 30.734 81.6267 31.21C81.3547 31.7087 80.6747 31.958 79.5867 31.958C78.7934 31.958 77.66 31.9013 76.1867 31.788L76.0167 28.082C77.15 28.1953 77.864 28.252 78.1587 28.252ZM72.9227 10.64L72.6847 9.48399C72.526 10.1867 72.356 10.8553 72.1747 11.49L72.9227 10.64ZM83.3267 22.642H82.0687V24.24L83.3267 22.642Z" fill="#004098"/>
<path d="M45.3843 25.838C46.1323 24.3193 46.5516 22.7326 46.6423 21.078V9.07597C46.5743 8.25997 46.1323 7.81797 45.3163 7.74997H43.8203V15.808C43.7523 17.9613 43.4236 20.0806 42.8343 22.166L41.2703 26.96C40.9529 27.8666 40.4996 28.728 39.9103 29.544C39.2529 30.4053 38.3803 30.8813 37.2923 30.972C36.0909 30.8586 35.2636 30.2466 34.8103 29.136C34.4023 28.2293 34.2096 27.2886 34.2323 26.314V9.07597C34.4816 6.21997 36.0229 4.6673 38.8563 4.41797H45.3163C48.1496 4.68997 49.6909 6.24264 49.9403 9.07597V21.078C49.8269 23.3446 49.2716 25.4753 48.2743 27.47L46.3023 31.006L43.4123 29.34L45.3843 25.838ZM40.4883 15.808V7.74997H38.8563C38.0403 7.81797 37.5983 8.25997 37.5303 9.07597V26.314C37.5303 26.5633 37.5529 26.79 37.5983 26.994C37.8023 26.654 37.9723 26.3026 38.1083 25.94L39.6383 21.146C40.1369 19.4006 40.4203 17.6213 40.4883 15.808Z" fill="#004098"/>
<path d="M0.468906 13.258C0.71824 12.7593 1.04691 12.3173 1.45491 11.932L4.34491 9.14398L0.128906 4.17998L2.64491 2.03798L6.72491 6.86598L11.9269 1.90198L14.2049 4.28198L4.58291 13.53H13.9669V16.862H11.1449L8.69691 18.46C7.65424 19.2986 7.07624 20.398 6.96291 21.758V24.342C7.05357 25.4073 7.60891 26.1666 8.62891 26.62L12.6749 27.81L11.7229 31.006L7.71091 29.782C6.48691 29.3513 5.52357 28.66 4.82091 27.708C4.07291 26.688 3.68757 25.566 3.66491 24.342V21.758C3.68757 20.5566 3.98224 19.4346 4.54891 18.392C4.84357 17.848 5.19491 17.338 5.60291 16.862H3.42691C2.88291 16.8846 2.33891 16.7826 1.79491 16.556C1.13757 16.284 0.68424 15.8306 0.434906 15.196C0.162906 14.5386 0.174239 13.8926 0.468906 13.258Z" fill="#004098"/>
</svg>
