<svg width="266" height="260" viewBox="0 0 266 260" fill="none" xmlns="http://www.w3.org/2000/svg">
<path d="M0 137.433H122.14V259.573H0V137.433Z" fill="#FF6F3D"/>
<path d="M122.14 137.433V259.573H0V137.433H122.14ZM4.69727 254.876H117.442V142.13H4.69727V254.876Z" fill="#FF6F3D"/>
<path d="M67.9666 192.141V205.976H72.8857V192.141H67.9666ZM67.9666 186.914H72.8857V173.848H67.9666V186.914ZM57.6673 192.141V205.976H62.7401V192.141H57.6673ZM57.6673 186.914H62.7401V173.848H57.6673V186.914ZM52.4408 192.141H47.5985V205.976H52.4408V192.141ZM47.5985 173.848V186.914H52.4408V173.848H47.5985ZM78.1891 186.914H84.9529V192.141H78.1891V205.976H83.9537V210.895H36.4537V205.976H42.2951V192.141H35.4545V186.914H42.2951V178.998C41.8852 180.791 40.886 182.585 39.2975 184.378L35.3008 181.073C39.8612 175.232 43.5505 168.519 46.3687 160.935L51.3647 162.396C50.3911 164.855 49.6225 167.007 49.0589 168.852H82.8777V173.848H78.1891V186.914ZM35.8388 229.265C38.7083 224.499 41.3728 219.145 43.8323 213.201L48.3671 215.737C45.9588 221.784 43.1918 227.318 40.0662 232.339L35.8388 229.265ZM53.2094 232.185C52.7482 227.061 52.0308 221.451 51.0573 215.353L56.2838 214.431C57.2574 220.221 58.0004 225.883 58.5128 231.417L53.2094 232.185ZM66.5063 232.032C65.2765 227.113 63.6624 221.553 61.6641 215.353L66.5063 213.739C68.6584 220.093 70.3237 225.704 71.5022 230.571L66.5063 232.032ZM80.495 231.878C77.9842 226.242 75.2684 220.784 72.3477 215.507L76.6519 212.74C79.8288 218.684 82.5446 224.166 84.7992 229.188L80.495 231.878Z" fill="white"/>
<path d="M143.465 137.433H265.605V259.573H143.465V137.433Z" fill="#FF6F3D"/>
<path d="M265.605 137.433V259.573H143.465V137.433H265.605ZM148.162 254.876H260.907V142.13H148.162V254.876Z" fill="#FF6F3D"/>
<path d="M218.888 213.739L197.059 219.58L196.598 214.354L218.888 208.359V163.702H224.268V207.282L229.494 205.899L229.956 211.126L224.268 212.663V232.416H218.888V213.739ZM214.583 186.607C211.304 181.79 207.717 176.974 203.823 172.157L207.435 168.314C211.483 173.028 215.096 177.845 218.273 182.764L214.583 186.607ZM211.048 205.207C207.564 200.134 203.746 194.985 199.596 189.758L203.131 185.915C207.333 190.886 211.176 196.01 214.66 201.287L211.048 205.207ZM199.288 188.221V193.217H193.293C196.419 202.338 198.417 208.154 199.288 210.664L195.599 213.816C193.498 208.179 192.268 203.593 191.91 200.058V232.416H186.683V203.132C185.658 210.613 183.48 217.3 180.15 223.193L177.383 217.889C181.328 210.049 184.147 201.825 185.838 193.217H178.613V188.221H186.683V184.762V163.702H191.91V184.378C193.549 178.434 194.779 172.618 195.599 166.931L200.364 167.699C199.442 173.899 198.033 180.074 196.137 186.223L191.91 184.685V188.221H199.288ZM178.305 168.775L182.994 167.392C184.48 173.387 185.709 179.177 186.683 184.762L182.225 186.069C180.944 179.766 179.637 174.002 178.305 168.775Z" fill="white"/>
<path d="M143.465 0H265.605V122.14H143.465V0Z" fill="#FF6F3D"/>
<path d="M265.605 0V122.14H143.465V0H265.605ZM148.162 117.442H260.907V4.69727H148.162V117.442Z" fill="#FF6F3D"/>
<path d="M187.054 91.9849V95.3668H181.904V72.3854H199.506V88.603C203.81 86.5534 206.961 83.6839 208.959 79.9946C211.06 76.2028 212.111 71.2837 212.111 65.2373V55.7835H217.414V65.2373C217.414 76.8177 221.949 84.6831 231.018 88.8336L229.328 94.0602C222.051 90.9857 217.235 85.5286 214.878 77.6888C212.572 85.6311 207.755 91.0882 200.428 94.0602L199.506 90.6783V91.9849H187.054ZM187.054 87.1427H194.51V77.3045H187.054V87.1427ZM212.111 26.4226H217.414V32.7252C217.414 38.5666 218.465 43.4345 220.565 47.3288C222.666 51.223 226.048 54.2206 230.711 56.3215L229.097 61.4712C221.923 58.4992 217.184 53.1189 214.878 45.3304C212.623 53.1702 207.883 58.5504 200.658 61.4712L199.044 56.3215C203.605 54.2719 206.91 51.3255 208.959 47.4825C211.06 43.6394 212.111 38.7203 212.111 32.7252V26.4226ZM200.505 44.7155V44.6386H180.367V39.489H200.966V43.6394C202.657 39.5914 203.938 35.1335 204.809 30.2657L209.574 31.5723C208.703 37.0038 207.192 42.051 205.04 46.7139L200.505 44.7155ZM224.332 45.4841L219.797 43.1783C222.103 39.0278 223.87 34.3905 225.1 29.2665L229.866 30.8037C228.687 36.1327 226.842 41.0262 224.332 45.4841ZM199.736 76.7665C201.735 72.411 203.118 67.5944 203.887 62.3166L208.729 63.5464C207.858 69.0291 206.346 74.102 204.194 78.7648L199.736 76.7665ZM224.639 78.6111L220.104 76.3053C222.41 72.1548 224.152 67.5175 225.331 62.3935L230.096 64.0076C228.969 69.2853 227.15 74.1532 224.639 78.6111ZM181.904 33.7244V28.7284H199.429V33.7244H181.904ZM182.289 55.476V50.6338H199.275V55.476H182.289ZM182.289 66.3903V61.4712H199.275V66.3903H182.289Z" fill="white"/>
<path d="M0 0.000854492H122.14V122.141H0V0.000854492Z" fill="#FF6F3D"/>
<path d="M122.14 0.000854492V122.141H0V0.000854492H122.14ZM4.69727 117.443H117.442V4.69812H4.69727V117.443Z" fill="#FF6F3D"/>
<path d="M64.2162 70.6046V84.5164H79.5115V70.6046H64.2162ZM64.2162 51.8506V65.6087H79.5115V51.8506H64.2162ZM64.2162 46.8546H79.5115V33.404H64.2162V46.8546ZM84.8149 28.3312V93.6629H79.5115V89.5124H64.2162V93.6629H59.0665V67.1459L55.5309 70.1435C53.9937 66.0442 52.4309 60.664 50.8424 54.0027V94.4315H45.6159V56.3854C44.4886 65.1988 41.9778 73.0898 38.0835 80.0585L35.0859 74.9088C39.7488 65.1731 42.9514 55.1556 44.6935 44.8562H37.3149V39.5528H45.6159V25.7179H50.8424V39.5528H57.2219V44.8562H51.7647L59.0665 65.8393V28.3312H84.8149Z" fill="white"/>
</svg>
