<svg width="550" height="391" viewBox="0 0 550 391" fill="none" xmlns="http://www.w3.org/2000/svg">
<path d="M534.896 177.866L545.328 203.234L541.439 204.778L532.304 182.742L520.453 204.963L516.688 202.988L534.464 169.718C535.616 167.249 536.275 164.698 536.439 162.064C536.151 160.542 535.246 159.74 533.723 159.657H517.49V155.46H533.723C537.838 155.748 540.163 157.95 540.698 162.064C540.492 165.439 539.669 168.648 538.229 171.693L534.896 177.866Z" fill="#004098"/>
<path d="M461.136 204.469C456.856 204.058 454.552 201.753 454.223 197.556V154.658H458.42V167.62H466.691C468.748 167.373 470.25 166.344 471.197 164.534L473.295 159.04L477.246 160.521L475.209 165.953C473.481 169.574 470.641 171.549 466.691 171.879H458.42V197.556C458.584 199.161 459.49 200.066 461.136 200.272H478.912V204.469H461.136ZM474.16 156.756V152.127H478.727V156.756H474.16ZM481.628 156.756V152.127H486.196V156.756H481.628Z" fill="#004098"/>
<path d="M385.77 182.125V177.434H422.063V182.125H385.77Z" fill="#004098"/>
<path d="M351.141 154.719V160.706H357.622V164.904H351.141V172.434C351.059 175.849 350.524 179.224 349.537 182.557L341.945 205.148L337.932 203.728L345.525 181.199C346.389 178.36 346.862 175.438 346.944 172.434V164.904H334.044V176.138H329.785V164.904H324.168V160.706H329.785V154.719H334.044V160.706H346.944V154.719H351.141Z" fill="#004098"/>
<path d="M283.06 177.866L293.492 203.234L289.603 204.778L280.468 182.742L268.617 204.963L264.852 202.988L282.628 169.718C283.78 167.249 284.439 164.698 284.603 162.064C284.315 160.542 283.41 159.74 281.887 159.657H265.654V155.46H281.887C286.002 155.748 288.327 157.95 288.862 162.064C288.657 165.439 287.834 168.648 286.393 171.693L283.06 177.866Z" fill="#004098"/>
<path d="M213.313 175.52L203.005 186.013L199.98 182.989L217.016 165.706C218.621 163.854 219.547 161.715 219.794 159.287V154.658H224.053V159.287C223.765 162.867 222.427 166.015 220.041 168.731L216.276 172.496L217.448 173.792C219.382 176.343 220.37 179.286 220.411 182.619V205.642H216.214V182.619C216.214 180.438 215.597 178.463 214.362 176.693L213.313 175.52Z" fill="#004098"/>
<path d="M143.379 182.063L139.428 206.135L135.293 205.457L139.243 181.384C139.696 178.298 139.943 175.232 139.984 172.187V154.781H144.181V172.187C144.14 175.479 143.873 178.771 143.379 182.063ZM160.662 164.595L166.34 177.619C167.575 180.829 168.295 184.223 168.501 187.803V202.926H164.242V187.803C164.077 184.882 163.501 182.063 162.513 179.347L156.773 166.262L160.662 164.595ZM162.081 159.781V155.213H166.649V159.781H162.081ZM169.673 159.781V155.213H174.241V159.781H169.673Z" fill="#004098"/>
<path d="M99.8019 178.73L105.357 184.779L102.209 187.618L96.6539 181.569C94.8022 179.841 92.6419 178.895 90.1729 178.73H82.7043V205.827H78.4453V154.781H82.7043V174.533H90.1729C93.8763 174.738 97.086 176.138 99.8019 178.73ZM95.1108 163.299V158.731H99.6784V163.299H95.1108ZM102.579 163.299V158.731H107.147V163.299H102.579Z" fill="#004098"/>
<path d="M36.6567 162.188C36.451 160.624 35.5457 159.801 33.9409 159.719H13.0781V155.522H33.9409C38.1381 155.851 40.4425 158.073 40.854 162.188C40.5659 165.809 39.2286 168.978 36.8419 171.693L27.5216 181.076V187.803C27.357 191.301 26.6369 194.655 25.3612 197.864L21.7812 205.95L17.8926 204.284L21.5343 196.136C22.5631 193.461 23.1597 190.684 23.3243 187.803V165.089H27.5216V175.088L33.8792 168.731C35.484 166.879 36.4098 164.698 36.6567 162.188Z" fill="#004098"/>
<path d="M486.628 89.3472V64.5958H490.825V89.3472C490.743 92.6803 490.393 95.9928 489.776 99.2848L486.381 115.889L482.184 115.086L485.64 98.4207C486.175 95.4167 486.504 92.3923 486.628 89.3472ZM508.169 108.111L509.959 87.2486L514.095 87.5572L512.428 108.42C512.223 110.231 511.482 111.815 510.206 113.173C508.89 114.448 507.326 115.127 505.515 115.21C501.483 114.675 499.343 112.35 499.096 108.235V64.5958H503.293V108.235C503.334 109.757 504.075 110.663 505.515 110.951C507.038 110.663 507.923 109.716 508.169 108.111Z" fill="#004098"/>
<path d="M430.151 116.321L427.065 87.4955L422.929 88.73L421.633 84.9031L426.571 83.2365L425.892 76.8789L430.027 76.3851L430.645 82.002L440.273 78.9775C441.796 78.4426 443.216 78.6483 444.532 79.5948C445.767 80.5412 446.405 81.8169 446.446 83.4217V88.1127C446.24 90.9932 445.17 93.5239 443.236 95.7048L440.15 98.7293L437.126 95.8282L440.335 92.8038C441.446 91.4458 442.084 89.8821 442.249 88.1127V83.4217C442.249 83.1748 442.187 82.9896 442.064 82.8662C441.899 82.7427 441.734 82.7221 441.57 82.8044L431.138 86.1993L434.225 115.827L430.151 116.321Z" fill="#004098"/>
<path d="M357.625 71.3238V67.0648H369.291V71.3238H357.625ZM357.625 88.2362V84.039H369.291V88.2362H357.625ZM382.438 82.8045V64.6576H386.635V82.8045C386.471 86.3433 385.586 89.697 383.981 92.8655L370.711 115.703L367.007 113.543L380.339 90.7669C381.574 88.2156 382.274 85.5615 382.438 82.8045Z" fill="#004098"/>
<path d="M319.419 82.4342V64.7194H323.616V82.4342C323.41 86.0553 322.361 89.409 320.468 92.4952L303.741 115.765L300.346 113.296L317.011 90.0263C318.452 87.6807 319.254 85.15 319.419 82.4342ZM303.432 77.0025C301.868 75.4388 300.017 74.5952 297.877 74.4718H293.371V70.2128H297.877C299.564 70.254 301.21 70.6449 302.815 71.3856C304.337 72.0851 305.654 73.0727 306.765 74.3483L309.419 77.6197L306.086 80.2738L303.432 77.0025Z" fill="#004098"/>
<path d="M232.57 76.3235V72.1262H250.717V64.8428H254.976V72.1262H260.099V76.3235H254.976V91.3842C254.812 94.8819 253.927 98.215 252.322 101.383L244.298 115.518L240.594 113.358L248.619 99.3466C249.853 96.7953 250.553 94.1412 250.717 91.3842V76.3235H232.57Z" fill="#004098"/>
<path d="M181.832 85.5203L171.524 96.0135L168.5 92.989L185.536 75.7062C187.141 73.8545 188.067 71.7147 188.313 69.2869V64.6576H192.572V69.2869C192.284 72.8669 190.947 76.0148 188.56 78.7307L184.795 82.4959L185.968 83.7921C187.902 86.3433 188.89 89.2855 188.931 92.6186V115.642H184.733V92.6186C184.733 90.4377 184.116 88.4625 182.882 86.6931L181.832 85.5203Z" fill="#004098"/>
<path d="M128.196 82.8663C128.073 82.0021 127.558 81.5495 126.653 81.5083H110.543V77.3728H126.653C130.068 77.6608 131.941 79.492 132.27 82.8663C132.064 85.6644 131.035 88.1334 129.184 90.2731L122.332 97.248V102.062C122.209 104.737 121.653 107.309 120.666 109.778L117.765 116.321L114 114.654L116.901 108.173C117.641 106.198 118.073 104.161 118.197 102.062V84.5945H122.332V91.3842L126.221 87.4956C127.332 86.1376 127.99 84.5945 128.196 82.8663Z" fill="#004098"/>
<path d="M70.482 72.3114V82.6811C70.3174 86.1788 69.5561 89.5325 68.1982 92.7421L57.3964 115.395L53.6313 113.543L64.3713 90.9521C65.4412 88.2774 66.079 85.5204 66.2847 82.6811V72.3114C66.079 70.6243 65.1737 69.719 63.5689 69.5956H44.4961V65.3983H63.5689C67.7249 65.7275 70.0293 68.0319 70.482 72.3114Z" fill="#004098"/>
<path d="M342.203 1.20154V25H339.461V1.20154H342.203Z" fill="#9E9E9E"/>
<path d="M325.62 25.4183C324.489 25.4183 323.463 25.2053 322.541 24.7792C321.619 24.3453 320.887 23.7217 320.345 22.9083C319.802 22.0871 319.531 21.0955 319.531 19.9335C319.531 18.9109 319.733 18.082 320.136 17.4467C320.538 16.8037 321.077 16.3002 321.751 15.9361C322.425 15.572 323.168 15.3008 323.982 15.1227C324.803 14.9367 325.628 14.7896 326.457 14.6811C327.542 14.5416 328.421 14.4371 329.095 14.3673C329.777 14.2899 330.272 14.1621 330.582 13.9839C330.9 13.8057 331.059 13.4958 331.059 13.0542V12.9613C331.059 11.8147 330.745 10.9238 330.117 10.2886C329.498 9.65336 328.556 9.33573 327.294 9.33573C325.984 9.33573 324.958 9.62237 324.214 10.1956C323.471 10.7689 322.948 11.3809 322.646 12.0317L320.043 11.102C320.507 10.0175 321.127 9.17305 321.902 8.56879C322.684 7.95678 323.536 7.53071 324.458 7.29055C325.388 7.04265 326.302 6.9187 327.201 6.9187C327.774 6.9187 328.432 6.98842 329.176 7.12787C329.928 7.25956 330.652 7.53458 331.349 7.95291C332.054 8.37124 332.639 9.00262 333.104 9.84703C333.569 10.6914 333.801 11.8225 333.801 13.2402V25H331.059V22.5829H330.919C330.733 22.9703 330.423 23.3847 329.99 23.8263C329.556 24.2679 328.979 24.6436 328.258 24.9535C327.538 25.2634 326.658 25.4183 325.62 25.4183ZM326.039 22.9548C327.123 22.9548 328.037 22.7417 328.781 22.3157C329.533 21.8896 330.098 21.3396 330.478 20.6656C330.865 19.9916 331.059 19.2828 331.059 18.539V16.0291C330.942 16.1685 330.687 16.2963 330.292 16.4125C329.904 16.521 329.455 16.6178 328.944 16.703C328.44 16.7805 327.948 16.8502 327.468 16.9122C326.995 16.9664 326.612 17.0129 326.318 17.0516C325.605 17.1446 324.939 17.2957 324.319 17.5048C323.707 17.7063 323.211 18.0123 322.831 18.4228C322.46 18.8257 322.274 19.3757 322.274 20.0729C322.274 21.0258 322.626 21.7463 323.331 22.2343C324.044 22.7146 324.946 22.9548 326.039 22.9548Z" fill="#9E9E9E"/>
<path d="M311.948 24.9999V7.15108H314.691V24.9999H311.948ZM313.343 4.17628C312.808 4.17628 312.347 3.99422 311.96 3.63012C311.58 3.26601 311.391 2.82831 311.391 2.31702C311.391 1.80572 311.58 1.36802 311.96 1.00392C312.347 0.639816 312.808 0.457764 313.343 0.457764C313.877 0.457764 314.334 0.639816 314.714 1.00392C315.101 1.36802 315.295 1.80572 315.295 2.31702C315.295 2.82831 315.101 3.26601 314.714 3.63012C314.334 3.99422 313.877 4.17628 313.343 4.17628Z" fill="#9E9E9E"/>
<path d="M300.267 25.3718C298.594 25.3718 297.153 24.9767 295.945 24.1865C294.736 23.3964 293.807 22.3079 293.156 20.9212C292.505 19.5345 292.18 17.9503 292.18 16.1685C292.18 14.3557 292.513 12.756 293.179 11.3693C293.853 9.97485 294.79 8.88641 295.991 8.10398C297.2 7.31379 298.61 6.9187 300.221 6.9187C301.476 6.9187 302.607 7.15111 303.614 7.61592C304.621 8.08074 305.446 8.73147 306.089 9.56814C306.732 10.4048 307.131 11.3809 307.286 12.4965H304.544C304.335 11.683 303.87 10.9626 303.149 10.3351C302.437 9.69984 301.476 9.38221 300.267 9.38221C299.198 9.38221 298.261 9.6611 297.455 10.2189C296.657 10.7689 296.034 11.5475 295.584 12.5546C295.143 13.5539 294.922 14.7276 294.922 16.0755C294.922 17.4545 295.139 18.6553 295.573 19.6778C296.014 20.7004 296.634 21.4945 297.432 22.06C298.238 22.6255 299.183 22.9083 300.267 22.9083C300.98 22.9083 301.627 22.7843 302.208 22.5364C302.789 22.2885 303.281 21.9322 303.684 21.4674C304.087 21.0026 304.373 20.4448 304.544 19.794H307.286C307.131 20.8476 306.748 21.7966 306.136 22.641C305.531 23.4777 304.73 24.1439 303.73 24.6397C302.739 25.1278 301.584 25.3718 300.267 25.3718Z" fill="#9E9E9E"/>
<path d="M275.961 14.2628V25H273.219V7.15111H275.868V9.93999H276.101C276.519 9.03361 277.154 8.3054 278.006 7.75537C278.858 7.19759 279.959 6.9187 281.307 6.9187C282.515 6.9187 283.572 7.1666 284.479 7.6624C285.385 8.15046 286.09 8.89416 286.594 9.89351C287.097 10.8851 287.349 12.1401 287.349 13.6585V25H284.607V13.8444C284.607 12.4422 284.243 11.3499 283.514 10.5675C282.786 9.77731 281.787 9.38221 280.516 9.38221C279.641 9.38221 278.858 9.57201 278.169 9.95161C277.487 10.3312 276.949 10.8851 276.554 11.6133C276.159 12.3415 275.961 13.2247 275.961 14.2628Z" fill="#9E9E9E"/>
<path d="M259.378 25.4183C258.247 25.4183 257.221 25.2053 256.299 24.7792C255.377 24.3453 254.645 23.7217 254.102 22.9083C253.56 22.0871 253.289 21.0955 253.289 19.9335C253.289 18.9109 253.49 18.082 253.893 17.4467C254.296 16.8037 254.835 16.3002 255.509 15.9361C256.183 15.572 256.926 15.3008 257.74 15.1227C258.561 14.9367 259.386 14.7896 260.215 14.6811C261.299 14.5416 262.179 14.4371 262.853 14.3673C263.534 14.2899 264.03 14.1621 264.34 13.9839C264.658 13.8057 264.816 13.4958 264.816 13.0542V12.9613C264.816 11.8147 264.503 10.9238 263.875 10.2886C263.255 9.65336 262.314 9.33573 261.051 9.33573C259.742 9.33573 258.716 9.62237 257.972 10.1956C257.228 10.7689 256.705 11.3809 256.403 12.0317L253.8 11.102C254.265 10.0175 254.885 9.17305 255.66 8.56879C256.442 7.95678 257.294 7.53071 258.216 7.29055C259.146 7.04265 260.06 6.9187 260.958 6.9187C261.532 6.9187 262.19 6.98842 262.934 7.12787C263.685 7.25956 264.41 7.53458 265.107 7.95291C265.812 8.37124 266.397 9.00262 266.862 9.84703C267.326 10.6914 267.559 11.8225 267.559 13.2402V25H264.816V22.5829H264.677C264.491 22.9703 264.181 23.3847 263.747 23.8263C263.314 24.2679 262.736 24.6436 262.016 24.9535C261.295 25.2634 260.416 25.4183 259.378 25.4183ZM259.796 22.9548C260.881 22.9548 261.795 22.7417 262.539 22.3157C263.29 21.8896 263.856 21.3396 264.235 20.6656C264.623 19.9916 264.816 19.2828 264.816 18.539V16.0291C264.7 16.1685 264.445 16.2963 264.05 16.4125C263.662 16.521 263.213 16.6178 262.702 16.703C262.198 16.7805 261.706 16.8502 261.226 16.9122C260.753 16.9664 260.37 17.0129 260.075 17.0516C259.363 17.1446 258.696 17.2957 258.077 17.5048C257.465 17.7063 256.969 18.0123 256.589 18.4228C256.217 18.8257 256.031 19.3757 256.031 20.0729C256.031 21.0258 256.384 21.7463 257.089 22.2343C257.802 22.7146 258.704 22.9548 259.796 22.9548Z" fill="#9E9E9E"/>
<path d="M237.074 14.2628V25H234.332V7.15111H236.981V9.93999H237.214C237.632 9.03361 238.267 8.3054 239.12 7.75537C239.972 7.19759 241.072 6.9187 242.42 6.9187C243.628 6.9187 244.686 7.1666 245.592 7.6624C246.499 8.15046 247.203 8.89416 247.707 9.89351C248.211 10.8851 248.462 12.1401 248.462 13.6585V25H245.72V13.8444C245.72 12.4422 245.356 11.3499 244.628 10.5675C243.899 9.77731 242.9 9.38221 241.63 9.38221C240.754 9.38221 239.972 9.57201 239.282 9.95161C238.601 10.3312 238.062 10.8851 237.667 11.6133C237.272 12.3415 237.074 13.2247 237.074 14.2628Z" fill="#9E9E9E"/>
<path d="M225.909 24.9999V7.15108H228.652V24.9999H225.909ZM227.304 4.17628C226.769 4.17628 226.308 3.99422 225.921 3.63012C225.541 3.26601 225.352 2.82831 225.352 2.31702C225.352 1.80572 225.541 1.36802 225.921 1.00392C226.308 0.639816 226.769 0.457764 227.304 0.457764C227.838 0.457764 228.295 0.639816 228.675 1.00392C229.062 1.36802 229.256 1.80572 229.256 2.31702C229.256 2.82831 229.062 3.26601 228.675 3.63012C228.295 3.99422 227.838 4.17628 227.304 4.17628Z" fill="#9E9E9E"/>
<path d="M221.415 7.15111V9.47518H211.793V7.15111H221.415ZM214.675 25V4.6876C214.675 3.66501 214.915 2.81285 215.395 2.13112C215.876 1.44939 216.499 0.938096 217.266 0.597233C218.033 0.256369 218.843 0.0859375 219.695 0.0859375C220.369 0.0859375 220.919 0.140166 221.345 0.248623C221.771 0.357079 222.089 0.457789 222.298 0.550752L221.508 2.9213C221.368 2.87482 221.174 2.81672 220.927 2.747C220.686 2.67728 220.369 2.64241 219.974 2.64241C219.067 2.64241 218.413 2.87095 218.01 3.32802C217.615 3.78508 217.417 4.45519 217.417 5.33834V25H214.675Z" fill="#9E9E9E"/>
<path d="M0 306H84.5264V390.527H0V306Z" fill="#004098"/>
<path d="M49.2778 342.505V364.636H51.7477V342.505H49.2778ZM39.0029 346.803H44.6343V342.505H39.0029V346.803ZM39.0029 355.695H44.6343V351.298H39.0029V355.695ZM39.0029 364.636H44.6343V360.14H39.0029V364.636ZM31.8895 364.636H34.3594V342.505H31.8895V364.636ZM26.4062 332.922V327.488H57.231V332.922H44.2391C44.0745 334.14 43.8439 335.688 43.5476 337.565H56.6876V371.206H51.7477V369.427H31.8895V371.206H26.9496V337.565H38.0643C38.4266 335.622 38.6736 334.074 38.8053 332.922H26.4062Z" fill="white"/>
<path d="M93.3047 306H177.831V390.527H93.3047V306Z" fill="#004098"/>
<path d="M124.307 369.921V371.7H119.713V356.633H131.668V358.461C132.623 355.826 133.347 352.978 133.841 349.915C133.545 350.211 133.249 350.392 132.952 350.458L131.47 344.777C134.27 343.427 136.229 341.731 137.349 339.689C138.435 337.648 138.979 334.815 138.979 331.193V326.846H143.869V331.193C143.869 333.366 144.067 335.276 144.462 336.923C145.615 334.321 146.553 331.357 147.278 328.031L151.477 329.513C150.818 332.938 149.814 336.199 148.463 339.294L144.61 337.368C144.874 338.191 145.203 338.932 145.598 339.591C146.751 341.632 148.793 343.361 151.724 344.777L150.588 349.668L151.674 350.112C151.016 353.537 149.978 356.798 148.562 359.893L144.561 357.819C144.824 358.774 145.187 359.646 145.648 360.437C146.833 362.479 148.924 364.207 151.921 365.624L150.439 371.304C146.389 369.625 143.441 366.529 141.597 362.017C139.753 366.562 136.871 369.658 132.952 371.304L131.668 366.315V369.921H124.307ZM124.307 365.179H127.469V361.375H124.307V365.179ZM138.979 346.753H143.869V352.039C143.869 354.245 144.083 356.156 144.511 357.769C145.664 355.2 146.586 352.27 147.278 348.976C144.808 347.165 142.914 344.596 141.597 341.27C140.082 344.959 138.024 347.708 135.422 349.52L138.287 350.606C137.694 353.998 136.789 357.308 135.57 360.536L131.668 358.609V365.525C134.368 364.207 136.262 362.544 137.349 360.536C138.435 358.494 138.979 355.662 138.979 352.039V346.753ZM119.713 333.07V328.081H131.52V333.07H119.713ZM118.824 340.48V335.145H132.31V337.466C133.265 334.733 134.023 331.818 134.582 328.723L138.781 330.007C138.221 333.432 137.349 336.758 136.163 339.986L132.31 338.109V340.48H118.824ZM120.01 347.494V342.653H131.47V344.777V347.494H120.01ZM120.01 354.46V349.668H131.47V354.46H120.01Z" fill="white"/>
<path d="M186.617 306H271.144V390.527H186.617V306Z" fill="#004098"/>
<path d="M233.178 362.264C234.265 360.058 234.874 357.753 235.006 355.349V337.911C234.907 336.725 234.265 336.083 233.079 335.984H230.906V347.692C230.807 350.82 230.329 353.9 229.473 356.929L227.201 363.895C226.74 365.212 226.081 366.463 225.225 367.649C224.27 368.9 223.002 369.592 221.421 369.724C219.676 369.559 218.474 368.67 217.815 367.056C217.222 365.739 216.942 364.372 216.975 362.956V337.911C217.338 333.761 219.577 331.506 223.693 331.143H233.079C237.196 331.538 239.435 333.794 239.797 337.911V355.349C239.633 358.642 238.826 361.738 237.377 364.636L234.512 369.773L230.313 367.352L233.178 362.264ZM226.065 347.692V335.984H223.693C222.508 336.083 221.866 336.725 221.767 337.911V362.956C221.767 363.318 221.8 363.648 221.866 363.944C222.162 363.45 222.409 362.94 222.607 362.413L224.83 355.447C225.554 352.912 225.966 350.326 226.065 347.692Z" fill="white"/>
<path d="M279.922 306H364.448V390.527H279.922V306Z" fill="#004098"/>
<path d="M315.024 346.901L311.418 358.016L306.824 356.485L310.43 345.37C311.155 342.834 311.583 340.266 311.715 337.664V337.466H308.652V332.675H311.715V328.871H316.556V332.675H321.99V337.466H316.556V337.664C316.424 340.825 315.914 343.905 315.024 346.901ZM327.275 340.578V335.737H335.13V340.578H327.275ZM333.302 356.534C334.685 357.654 335.41 359.119 335.475 360.931V364.487H330.684V360.931C330.453 360.239 329.943 359.86 329.152 359.794V362.956C328.757 367.073 326.518 369.328 322.434 369.724H322.187C318.038 369.328 315.782 367.073 315.42 362.956V361.721C315.782 357.604 318.038 355.349 322.187 354.953H324.361V346.259H329.152V354.953C330.7 355.052 332.083 355.579 333.302 356.534ZM324.361 362.956V359.745H322.187C320.969 359.844 320.326 360.503 320.261 361.721V362.956C320.326 364.142 320.969 364.784 322.187 364.883H322.434C323.62 364.784 324.262 364.142 324.361 362.956Z" fill="white"/>
<path d="M373.113 306H457.64V390.527H373.113V306Z" fill="#004098"/>
<path d="M423.971 350.36C424.663 348.581 424.745 346.819 424.218 345.074L420.662 333.613L425.305 332.181L428.862 343.592C429.718 346.753 429.471 349.833 428.121 352.829L426.244 355.892L422.094 353.472L423.971 350.36ZM402.285 362.512C403.142 360.14 403.619 357.671 403.718 355.102V341.962H400.952V337.121H403.718V328.921H408.559V337.121H411.869C415.985 337.516 418.241 339.772 418.636 343.888V363.055C418.406 367.007 416.397 369.263 412.61 369.823H408.954V364.982H412.61C413.4 364.652 413.812 364.01 413.845 363.055V343.888C413.746 342.703 413.087 342.061 411.869 341.962H408.559V355.102C408.46 358.296 407.867 361.375 406.781 364.339L404.558 369.823L400.062 367.945L402.285 362.512ZM420.168 331.637V327.587H424.218V331.637H420.168ZM426.244 331.637V327.587H430.344V331.637H426.244Z" fill="white"/>
<path d="M465.113 306H549.64V390.527H465.113V306Z" fill="#004098"/>
<path d="M515.576 362.067L518.54 357.967L522.443 360.832L517.651 367.451C516.828 368.736 515.659 369.477 514.144 369.674C513.814 369.641 513.485 369.592 513.156 369.526C511.41 368.67 510.603 367.221 510.735 365.179V342.505C510.768 341.846 510.62 341.237 510.291 340.677C509.928 340.809 509.648 340.99 509.451 341.221C508.759 341.747 508.232 342.39 507.87 343.147L502.634 351.989V369.575H497.793V360.19L496.212 362.907L492.062 360.486L497.793 350.656V337.466H493.495V332.675H497.793V328.92H502.634V332.675H505.746V337.466H502.634V342.455L503.671 340.677C505.219 337.911 507.508 336.264 510.538 335.737C512.25 335.836 513.551 336.659 514.44 338.207C515.165 339.525 515.543 340.957 515.576 342.505V362.067Z" fill="white"/>
</svg>
