<svg width="381" height="217" viewBox="0 0 381 217" fill="none" xmlns="http://www.w3.org/2000/svg">
<path d="M349.639 91.3296C352.306 89.1143 354.378 86.5707 355.855 83.6989C357.332 80.786 358.214 77.2168 358.501 72.9912H349.639V91.3296ZM364.101 78.2219C367.998 82.5296 371.342 87.5553 374.132 93.2989V72.9912H364.778C364.614 74.8373 364.388 76.5809 364.101 78.2219ZM358.562 59.6373H364.901V66.0373H380.47V104.868C380.47 106.55 380.45 107.883 380.408 108.868C380.367 109.812 380.244 110.694 380.039 111.514C379.875 112.376 379.629 112.991 379.301 113.36C379.014 113.771 378.562 114.099 377.947 114.345C377.373 114.632 376.737 114.796 376.039 114.837C375.383 114.919 374.501 114.96 373.393 114.96C372.901 114.96 370.46 114.858 366.07 114.653L365.762 107.637C369.783 107.842 371.957 107.945 372.285 107.945C373.27 107.945 373.824 107.822 373.947 107.576C374.07 107.33 374.132 106.509 374.132 105.114V95.5758L370.624 99.0835C367.465 93.1348 364.593 88.4989 362.008 85.1758C359.916 90.5501 356.326 95.104 351.239 98.8373L349.639 95.145V115.022H343.301V66.0373H358.562V59.6373Z" fill="white"/>
<path d="M293.949 72.3759H305.272V69.2374H294.933C294.646 70.263 294.318 71.3092 293.949 72.3759ZM286.749 72.3759C287.2 71.5143 287.651 70.4682 288.103 69.2374H280.656V72.3759H286.749ZM294.195 84.0066C296 82.6528 297.497 80.9502 298.687 78.8989H290.195C289.497 80.0066 288.923 81.0117 288.472 81.9143C290.646 82.6117 292.554 83.3092 294.195 84.0066ZM279.733 95.5759H289.703V92.6835C287.036 93.8323 283.713 94.7964 279.733 95.5759ZM292.041 92.1912H296.226V95.5759H304.533C301.374 93.4015 298.215 91.6169 295.056 90.222C294.154 90.7553 293.149 91.4117 292.041 92.1912ZM273.641 78.8989V72.3759H274.441V63.4528H289.703V58.4066H296.226V63.4528H311.487V72.3759H312.287V78.8989H305.456C304.02 81.7707 302.379 84.2528 300.533 86.3451C303.897 87.9451 307.364 89.7707 310.933 91.822L308.903 95.5759H312.287V102.099H300.779C303.979 104.93 308.308 107.453 313.764 109.668L311.426 116.253C304.944 113.135 299.877 109.504 296.226 105.36V116.314H289.703V105.36C286.051 109.504 280.985 113.135 274.503 116.253L272.164 109.668C277.62 107.453 281.949 104.93 285.149 102.099H273.641V95.5759H276.472L275.241 90.0374C280.041 89.381 283.815 88.4784 286.564 87.3297C286.564 87.1246 285.826 86.7964 284.349 86.3451C284.349 86.4682 284.246 86.6733 284.041 86.9605C283.836 87.2476 283.59 87.4733 283.303 87.6374L278.01 84.1297C279.692 82.4066 281.067 80.663 282.133 78.8989H273.641Z" fill="white"/>
<path d="M226.379 93.4219L215.425 113.914L210.133 111.083L227.856 77.9142C228.923 75.6168 229.558 73.2168 229.764 70.7142C229.517 69.7706 228.902 69.2783 227.917 69.2373H211.733V63.2065H227.917C232.594 63.5347 235.199 66.0373 235.733 70.7142C235.569 74.2424 234.707 77.586 233.148 80.745L230.071 86.5296L240.348 111.391L234.748 113.668L226.379 93.4219Z" fill="white"/>
<path d="M149.394 113.914C144.635 113.422 142.029 110.817 141.578 106.099V63.3297H147.609V75.3912H154.932C156.573 75.1861 157.804 74.3245 158.624 72.8066L160.655 67.3912L166.317 69.4835L164.224 74.9604C163.404 76.8066 162.173 78.3245 160.532 79.5143C158.85 80.663 156.983 81.2784 154.932 81.3604H147.609V106.099C147.691 107.166 148.286 107.76 149.394 107.884H167.117V113.914H149.394ZM162.132 65.6681V60.5604H167.178V65.6681H162.132ZM169.578 65.6681V60.5604H174.624V65.6681H169.578Z" fill="white"/>
<path d="M68.1016 92.0067V84.7451H104.286V92.0067H68.1016Z" fill="white"/>
<path d="M5.26971 84.7451V74.3451H0.53125V68.3758H5.26971V63.3912H11.2389V68.3758H22.3159V63.3912H28.3466V68.3758H33.8851V74.3451H28.3466V81.0528C28.3466 84.54 27.7723 87.9861 26.6236 91.3912L19.0543 113.914L13.4543 111.945L20.962 89.4835C21.8646 86.7759 22.3159 83.9656 22.3159 81.0528V74.3451H11.2389V84.7451H5.26971Z" fill="white"/>
<path d="M236.676 26.4404C235.083 26.4404 233.644 26.0695 232.357 25.3278C231.069 24.5861 230.044 23.528 229.281 22.1537C228.539 20.7575 228.168 19.0886 228.168 17.1471C228.168 15.6855 228.386 14.3874 228.822 13.2531C229.259 12.0968 229.848 11.1152 230.589 10.308C231.353 9.47901 232.215 8.85728 233.175 8.44279C234.134 8.00648 235.116 7.78833 236.12 7.78833C237.647 7.78833 238.934 8.12647 239.981 8.80274C241.028 9.47901 241.824 10.4498 242.37 11.7151C242.937 12.9585 243.221 14.4311 243.221 16.1327C243.221 16.4599 243.21 16.7653 243.188 17.0489C243.166 17.3325 243.133 17.5943 243.09 17.8343H231.113C231.178 19.0995 231.462 20.2012 231.964 21.1393C232.487 22.0555 233.175 22.7754 234.025 23.299C234.876 23.8007 235.869 24.0516 237.003 24.0516C237.876 24.0516 238.661 23.9316 239.359 23.6917C240.079 23.4299 240.777 23.0808 241.453 22.6445L242.501 24.6406C241.737 25.1424 240.875 25.5678 239.916 25.9168C238.956 26.2659 237.876 26.4404 236.676 26.4404ZM231.08 15.7073H240.603C240.603 13.9184 240.21 12.555 239.425 11.6169C238.661 10.657 237.581 10.1771 236.185 10.1771C235.356 10.1771 234.571 10.3953 233.829 10.8316C233.109 11.2679 232.498 11.8896 231.997 12.6968C231.517 13.5039 231.211 14.5074 231.08 15.7073Z" fill="#9E9E9E"/>
<path d="M220.007 26.4404C218.436 26.4404 217.018 26.0804 215.753 25.3605C214.509 24.6188 213.517 23.5608 212.775 22.1864C212.055 20.7902 211.695 19.1105 211.695 17.1471C211.695 15.1619 212.088 13.4821 212.873 12.1078C213.659 10.7116 214.706 9.64263 216.015 8.90091C217.324 8.15919 218.731 7.78833 220.236 7.78833C221.392 7.78833 222.385 7.99558 223.214 8.41007C224.065 8.82456 224.795 9.3154 225.406 9.8826L223.901 11.846C223.399 11.3879 222.854 11.017 222.265 10.7334C221.698 10.4498 221.065 10.308 220.367 10.308C219.298 10.308 218.338 10.5916 217.487 11.1588C216.636 11.726 215.971 12.5222 215.491 13.5476C215.011 14.5729 214.771 15.7727 214.771 17.1471C214.771 18.4996 215 19.6886 215.458 20.7139C215.938 21.7392 216.582 22.5355 217.389 23.1026C218.218 23.6698 219.178 23.9534 220.269 23.9534C221.098 23.9534 221.861 23.7898 222.559 23.4626C223.257 23.1136 223.89 22.6882 224.457 22.1864L225.766 24.2152C224.959 24.9133 224.065 25.4587 223.083 25.8514C222.101 26.244 221.076 26.4404 220.007 26.4404Z" fill="#9E9E9E"/>
<path d="M203.341 26.0148V8.24625H206.351V26.0148H203.341ZM204.846 4.58129C204.257 4.58129 203.777 4.40677 203.406 4.05772C203.057 3.68686 202.883 3.19602 202.883 2.58519C202.883 1.99618 203.057 1.52715 203.406 1.17811C203.777 0.829063 204.257 0.654541 204.846 0.654541C205.435 0.654541 205.915 0.829063 206.286 1.17811C206.657 1.52715 206.842 1.99618 206.842 2.58519C206.842 3.19602 206.657 3.68686 206.286 4.05772C205.915 4.40677 205.435 4.58129 204.846 4.58129Z" fill="#9E9E9E"/>
<path d="M189.449 26.0149L183.035 8.24634H186.144L189.482 18.3577C189.765 19.2303 190.038 20.1138 190.3 21.0083C190.583 21.8809 190.856 22.7426 191.118 23.5934H191.281C191.565 22.7426 191.838 21.8809 192.099 21.0083C192.383 20.1138 192.656 19.2303 192.917 18.3577L196.288 8.24634H199.233L192.95 26.0149H189.449Z" fill="#9E9E9E"/>
<path d="M171.449 26.015V8.24645H173.903L174.198 11.486H174.263C174.874 10.3516 175.616 9.4572 176.489 8.80274C177.383 8.12647 178.321 7.78833 179.303 7.78833C179.717 7.78833 180.066 7.82105 180.35 7.8865C180.655 7.93013 180.939 8.0283 181.201 8.18101L180.644 10.7661C180.339 10.6789 180.066 10.6134 179.826 10.5698C179.586 10.5043 179.281 10.4716 178.91 10.4716C178.19 10.4716 177.416 10.7879 176.587 11.4206C175.758 12.0314 175.049 13.0894 174.46 14.5947V26.015H171.449Z" fill="#9E9E9E"/>
<path d="M159.875 26.4404C158.283 26.4404 156.843 26.0695 155.556 25.3278C154.269 24.5861 153.243 23.528 152.48 22.1537C151.738 20.7575 151.367 19.0886 151.367 17.1471C151.367 15.6855 151.585 14.3874 152.022 13.2531C152.458 12.0968 153.047 11.1152 153.789 10.308C154.552 9.47901 155.414 8.85728 156.374 8.44279C157.334 8.00648 158.315 7.78833 159.319 7.78833C160.846 7.78833 162.133 8.12647 163.18 8.80274C164.227 9.47901 165.024 10.4498 165.569 11.7151C166.136 12.9585 166.42 14.4311 166.42 16.1327C166.42 16.4599 166.409 16.7653 166.387 17.0489C166.365 17.3325 166.332 17.5943 166.289 17.8343H154.312C154.378 19.0995 154.661 20.2012 155.163 21.1393C155.687 22.0555 156.374 22.7754 157.225 23.299C158.075 23.8007 159.068 24.0516 160.202 24.0516C161.075 24.0516 161.86 23.9316 162.558 23.6917C163.278 23.4299 163.976 23.0808 164.653 22.6445L165.7 24.6406C164.936 25.1424 164.075 25.5678 163.115 25.9168C162.155 26.2659 161.075 26.4404 159.875 26.4404ZM154.28 15.7073H163.802C163.802 13.9184 163.409 12.555 162.624 11.6169C161.86 10.657 160.78 10.1771 159.384 10.1771C158.555 10.1771 157.77 10.3953 157.028 10.8316C156.308 11.2679 155.698 11.8896 155.196 12.6968C154.716 13.5039 154.41 14.5074 154.28 15.7073Z" fill="#9E9E9E"/>
<path d="M141.36 26.4404C140.117 26.4404 138.906 26.2113 137.728 25.7532C136.572 25.2733 135.579 24.6843 134.75 23.9862L136.19 21.9901C136.975 22.6227 137.782 23.1354 138.611 23.528C139.44 23.9207 140.389 24.1171 141.458 24.1171C142.636 24.1171 143.509 23.8553 144.076 23.3317C144.665 22.7863 144.96 22.121 144.96 21.3356C144.96 20.7248 144.752 20.223 144.338 19.8304C143.945 19.4159 143.432 19.0668 142.8 18.7832C142.189 18.4778 141.556 18.2051 140.902 17.9652C140.073 17.6379 139.255 17.278 138.448 16.8853C137.662 16.4708 137.008 15.9472 136.484 15.3146C135.983 14.6601 135.732 13.8312 135.732 12.8277C135.732 11.8678 135.972 11.017 136.452 10.2753C136.932 9.51174 137.63 8.91182 138.546 8.47551C139.462 8.01739 140.564 7.78833 141.851 7.78833C142.942 7.78833 143.956 7.98467 144.894 8.37734C145.854 8.77002 146.672 9.24995 147.348 9.81715L145.909 11.6824C145.298 11.246 144.665 10.8752 144.011 10.5698C143.378 10.2644 142.669 10.1117 141.884 10.1117C140.749 10.1117 139.909 10.3734 139.364 10.897C138.84 11.3988 138.579 11.9987 138.579 12.6968C138.579 13.2421 138.753 13.7003 139.102 14.0711C139.473 14.442 139.953 14.7583 140.542 15.0201C141.131 15.2601 141.753 15.5109 142.407 15.7727C143.062 16.0127 143.705 16.2745 144.338 16.5581C144.992 16.8417 145.57 17.1798 146.072 17.5725C146.596 17.9652 147.01 18.456 147.316 19.045C147.643 19.6122 147.806 20.3212 147.806 21.172C147.806 22.1319 147.556 23.0154 147.054 23.8226C146.574 24.6297 145.854 25.2733 144.894 25.7532C143.956 26.2113 142.778 26.4404 141.36 26.4404Z" fill="#9E9E9E"/>
<path d="M204.023 136H284.487V216.463H204.023V136Z" fill="#FAD06C"/>
<path d="M284.487 136V216.463H204.023V136H284.487ZM207.118 213.368H281.392V139.095H207.118V213.368Z" fill="#FAD06C"/>
<path d="M248.934 171.973V181.087H252.174V171.973H248.934ZM248.934 168.53H252.174V159.922H248.934V168.53ZM242.149 171.973V181.087H245.491V171.973H242.149ZM242.149 168.53H245.491V159.922H242.149V168.53ZM238.706 171.973H235.516V181.087H238.706V171.973ZM235.516 159.922V168.53H238.706V159.922H235.516ZM255.668 168.53H260.124V171.973H255.668V181.087H259.466V184.328H228.174V181.087H232.022V171.973H227.515V168.53H232.022V163.314C231.752 164.496 231.093 165.677 230.047 166.859L227.414 164.681C230.418 160.833 232.849 156.411 234.705 151.415L237.997 152.377C237.355 153.998 236.849 155.415 236.478 156.631H258.757V159.922H255.668V168.53ZM227.769 196.429C229.659 193.29 231.414 189.762 233.034 185.847L236.022 187.518C234.435 191.501 232.613 195.146 230.553 198.455L227.769 196.429ZM239.212 198.353C238.908 194.978 238.435 191.281 237.794 187.264L241.237 186.657C241.879 190.471 242.368 194.201 242.706 197.847L239.212 198.353ZM247.972 198.252C247.161 195.011 246.098 191.349 244.782 187.264L247.972 186.201C249.389 190.387 250.486 194.083 251.263 197.29L247.972 198.252ZM257.187 198.151C255.533 194.438 253.744 190.843 251.82 187.366L254.655 185.543C256.748 189.459 258.537 193.07 260.023 196.379L257.187 198.151Z" fill="#004098"/>
<path d="M298.535 136H378.998V216.463H298.535V136Z" fill="#FAD06C"/>
<path d="M378.998 136V216.463H298.535V136H378.998ZM301.63 213.368H375.904V139.095H301.63V213.368Z" fill="#FAD06C"/>
<path d="M348.362 186.201L333.982 190.049L333.678 186.606L348.362 182.657V153.238H351.906V181.948L355.35 181.036L355.653 184.48L351.906 185.492V198.505H348.362V186.201ZM345.527 168.327C343.366 165.154 341.003 161.981 338.438 158.808L340.818 156.276C343.484 159.382 345.864 162.555 347.957 165.795L345.527 168.327ZM343.197 180.581C340.902 177.239 338.387 173.846 335.653 170.403L337.982 167.871C340.75 171.146 343.282 174.521 345.577 177.998L343.197 180.581ZM335.45 169.391V172.682H331.501C333.56 178.69 334.876 182.522 335.45 184.176L333.02 186.252C331.636 182.539 330.826 179.517 330.589 177.188V198.505H327.146V179.214C326.471 184.142 325.037 188.547 322.842 192.429L321.02 188.935C323.619 183.771 325.475 178.353 326.589 172.682H321.83V169.391H327.146V167.112V153.238H330.589V166.859C331.67 162.943 332.48 159.112 333.02 155.365L336.159 155.871C335.552 159.956 334.623 164.023 333.374 168.074L330.589 167.061V169.391H335.45ZM321.627 156.58L324.716 155.669C325.695 159.618 326.505 163.433 327.146 167.112L324.209 167.973C323.366 163.821 322.505 160.023 321.627 156.58Z" fill="#004098"/>
<path d="M109.512 136H189.975V216.463H109.512V136Z" fill="#FAD06C"/>
<path d="M189.975 136V216.463H109.512V136H189.975ZM112.606 213.368H186.88V139.095H112.606V213.368Z" fill="#FAD06C"/>
<path d="M138.362 196.531V198.758H134.97V183.619H146.565V194.303C149.401 192.952 151.477 191.062 152.793 188.632C154.177 186.134 154.869 182.893 154.869 178.91V172.682H158.363V178.91C158.363 186.539 161.35 191.72 167.325 194.455L166.211 197.898C161.418 195.872 158.245 192.277 156.692 187.113C155.173 192.345 152 195.94 147.173 197.898L146.565 195.67V196.531H138.362ZM138.362 193.341H143.274V186.859H138.362V193.341ZM154.869 153.339H158.363V157.491C158.363 161.34 159.055 164.547 160.439 167.112C161.823 169.677 164.051 171.652 167.123 173.036L166.059 176.429C161.333 174.471 158.211 170.926 156.692 165.796C155.207 170.96 152.084 174.505 147.325 176.429L146.261 173.036C149.265 171.686 151.443 169.745 152.793 167.213C154.177 164.682 154.869 161.441 154.869 157.491V153.339ZM147.223 165.39V165.34H133.957V161.947H147.527V164.682C148.641 162.015 149.485 159.078 150.059 155.871L153.198 156.732C152.624 160.31 151.628 163.635 150.211 166.707L147.223 165.39ZM162.92 165.897L159.932 164.378C161.451 161.644 162.616 158.589 163.426 155.213L166.566 156.226C165.789 159.736 164.574 162.96 162.92 165.897ZM146.717 186.505C148.033 183.636 148.945 180.463 149.451 176.986L152.641 177.796C152.067 181.408 151.071 184.75 149.654 187.821L146.717 186.505ZM163.122 187.72L160.135 186.201C161.654 183.467 162.802 180.412 163.578 177.036L166.717 178.1C165.975 181.577 164.776 184.783 163.122 187.72ZM134.97 158.15V154.859H146.514V158.15H134.97ZM135.223 172.479V169.289H146.413V172.479H135.223ZM135.223 179.669V176.429H146.413V179.669H135.223Z" fill="#004098"/>
<path d="M15 136H95.4631V216.464H15V136Z" fill="#FAD06C"/>
<path d="M95.4631 136V216.464H15V136H95.4631ZM18.0947 213.369H92.3684V139.095H18.0947V213.369Z" fill="#FAD06C"/>
<path d="M57.4443 182.446V191.61H67.5206V182.446H57.4443ZM57.4443 170.091V179.154H67.5206V170.091H57.4443ZM57.4443 166.8H67.5206V157.939H57.4443V166.8ZM71.0143 154.597V197.636H67.5206V194.902H57.4443V197.636H54.0518V180.167L51.7226 182.142C50.71 179.441 49.6804 175.897 48.6339 171.509V198.142H45.1908V173.078C44.4482 178.884 42.7941 184.083 40.2286 188.674L38.2539 185.281C41.3257 178.867 43.4355 172.268 44.5832 165.483H39.7223V161.989H45.1908V152.875H48.6339V161.989H52.8366V165.483H49.2416L54.0518 179.306V154.597H71.0143Z" fill="#004098"/>
</svg>
